<svg xmlns="http://www.w3.org/2000/svg" width="52.563" height="52.563" viewBox="0 0 52.563 52.563">
  <path id="circle-video-light" d="M42.01,18.366a1.644,1.644,0,0,0-1.5-.2l-7.655,2.784V19.711a3.286,3.286,0,0,0-3.285-3.285H16.426a3.282,3.282,0,0,0-3.285,3.285V32.852a3.286,3.286,0,0,0,3.285,3.285H29.567a3.286,3.286,0,0,0,3.285-3.285V31.61L40.5,34.392a1.538,1.538,0,0,0,.562.1,1.643,1.643,0,0,0,1.643-1.643V19.711A1.636,1.636,0,0,0,42.01,18.366ZM29.567,32.852H16.426V19.711H29.567Zm9.856-2.341-6.57-2.392V24.444l6.57-2.389ZM26.282,0A26.282,26.282,0,1,0,52.563,26.282,26.28,26.28,0,0,0,26.282,0Zm0,49.278a23,23,0,1,1,23-23A23.024,23.024,0,0,1,26.282,49.278Z" fill="#489ac2"/>
</svg>
