<svg xmlns="http://www.w3.org/2000/svg" width="38.501" height="51.563" viewBox="0 0 38.501 51.563">
  <path id="file-chart-pie-light_1_" data-name="file-chart-pie-light (1)" d="M17.646,22.559v9.668a1.607,1.607,0,0,0,1.6,1.611h9.625a1.607,1.607,0,0,0,1.6-1.611A11.268,11.268,0,0,0,19.25,20.948,1.613,1.613,0,0,0,17.646,22.559Zm3.208,1.772a7.951,7.951,0,0,1,6.256,6.284H20.855ZM18.448,41.09A8.049,8.049,0,0,1,15.24,25.671V22.3a11.229,11.229,0,1,0,13.9,13.958H25.782A8.026,8.026,0,0,1,18.448,41.09ZM36.626,12.619,25.948,1.893A6.407,6.407,0,0,0,21.406,0H6.417A6.431,6.431,0,0,0,0,6.445V45.118a6.431,6.431,0,0,0,6.417,6.445H32.084A6.431,6.431,0,0,0,38.5,45.118V17.171A6.439,6.439,0,0,0,36.626,12.619ZM22.459,3.432a3.157,3.157,0,0,1,1.215.735L34.352,14.893a3.024,3.024,0,0,1,.73,1.221H24.063a1.613,1.613,0,0,1-1.6-1.611ZM35.292,45.118a3.22,3.22,0,0,1-3.208,3.223H6.417a3.22,3.22,0,0,1-3.208-3.223V6.445A3.22,3.22,0,0,1,6.417,3.223H19.25V14.5a4.825,4.825,0,0,0,4.813,4.834H35.292Z" fill="#489ac2"/>
</svg>
