<svg xmlns="http://www.w3.org/2000/svg" width="64.5" height="51.6" viewBox="0 0 64.5 51.6">
  <path id="gears-light" d="M10.516,25.2a5.788,5.788,0,0,1,5.715-5.733,5.733,5.733,0,0,1,0,11.467A5.788,5.788,0,0,1,10.516,25.2Zm5.715-2.457a2.457,2.457,0,0,0,0,4.914,2.457,2.457,0,0,0,0-4.914Zm5.593-10.324A13.773,13.773,0,0,1,24.548,14l2.766-.828a1.548,1.548,0,0,1,1.592.42A17.222,17.222,0,0,1,32.58,20.02a1.545,1.545,0,0,1-.429,1.587l-2.143,1.955a6.057,6.057,0,0,1,.1,1.72c0,.44.061,1.055.01,1.566l2.031,1.945a1.545,1.545,0,0,1,.429,1.587,17.214,17.214,0,0,1-3.674,6.43,1.546,1.546,0,0,1-1.592.42L24.7,36.442a14.4,14.4,0,0,1-2.919,1.72l-.633,2.662A1.693,1.693,0,0,1,20,42a17.559,17.559,0,0,1-3.766.4,18.736,18.736,0,0,1-3.674-.4A1.581,1.581,0,0,1,11.5,40.824l-.633-2.662a14.174,14.174,0,0,1-2.918-1.72l-2.61.788a1.539,1.539,0,0,1-1.593-.42A17.2,17.2,0,0,1,.06,30.381a1.564,1.564,0,0,1,.431-1.587L2.53,26.849a15.441,15.441,0,0,1-.087-1.566,14.257,14.257,0,0,1,.1-1.72L.492,21.607A1.564,1.564,0,0,1,.06,20.02a17.217,17.217,0,0,1,3.682-6.428,1.541,1.541,0,0,1,1.593-.42L8.1,14a13.764,13.764,0,0,1,2.727-1.581L11.5,9.573A1.575,1.575,0,0,1,12.557,8.4,18.283,18.283,0,0,1,16.231,8,17.176,17.176,0,0,1,20,8.4,1.685,1.685,0,0,1,21.15,9.573Zm-15.838,9.9-.2,1.638a10.708,10.708,0,0,0-.171,1.321,11.043,11.043,0,0,0,.158,1.208l.179,1.618-2.417,2.3A13.781,13.781,0,0,0,5.459,33.77L8.6,32.828l1.323,1.014a10.819,10.819,0,0,0,2.234,1.31l1.5.645.755,3.194a12.654,12.654,0,0,0,1.817.133,13.473,13.473,0,0,0,2-.133l.755-3.194,1.5-.645a13.969,13.969,0,0,0,2.235-1.31l1.327-1.014,3.133.942a13.673,13.673,0,0,0,1.929-3.358l-2.419-2.3.173-1.618a9.58,9.58,0,0,0-.02-1.208,11.439,11.439,0,0,0,.01-1.321l-.194-1.638,2.449-2.334a13.7,13.7,0,0,0-1.929-3.359l-3.266.984-1.306-.981a10.806,10.806,0,0,0-2.092-1.209l-1.49-.653-.8-3.362a14.209,14.209,0,0,0-2-.132,13.431,13.431,0,0,0-1.817.132l-.8,3.362-1.5.653a10.576,10.576,0,0,0-2.078,1.209l-1.314.981L5.459,16.63a13.806,13.806,0,0,0-1.922,3.359ZM47.348,37.486a5.733,5.733,0,1,1-5.715,5.733,5.728,5.728,0,0,1,5.715-5.733ZM49.8,43.219a2.449,2.449,0,1,0-2.449,2.457A2.447,2.447,0,0,0,49.8,43.219Zm10.287,5.518a13.669,13.669,0,0,1-1.572,2.734l.827,2.775a1.558,1.558,0,0,1-.418,1.6,17.133,17.133,0,0,1-6.409,3.686,1.534,1.534,0,0,1-1.582-.43l-2.041-2.15a5.082,5.082,0,0,1-1.623.195,15.633,15.633,0,0,1-1.561-.082L43.766,59.1a1.534,1.534,0,0,1-1.582.43,17.133,17.133,0,0,1-6.409-3.686,1.573,1.573,0,0,1-.418-1.6l.786-2.621A14.467,14.467,0,0,1,34.427,48.7l-2.653-.635A1.693,1.693,0,0,1,30.6,46.905a17.5,17.5,0,0,1-.4-3.686,19.085,19.085,0,0,1,.4-3.778,1.58,1.58,0,0,1,1.174-1.065l2.653-.635a14.468,14.468,0,0,1,1.715-2.928l-.786-2.621a1.579,1.579,0,0,1,.418-1.6,17.133,17.133,0,0,1,6.409-3.686,1.534,1.534,0,0,1,1.582.43L45.7,29.388a13.054,13.054,0,0,1,1.561-.092,11.2,11.2,0,0,1,1.623.1L50.93,27.34a1.534,1.534,0,0,1,1.582-.43A17.133,17.133,0,0,1,58.921,30.6a1.558,1.558,0,0,1,.418,1.6l-.827,2.775A13.668,13.668,0,0,1,60.084,37.7l2.837.676A1.58,1.58,0,0,1,64.1,39.441a18.352,18.352,0,0,1,.4,3.778,16.855,16.855,0,0,1-.4,3.686,1.693,1.693,0,0,1-1.174,1.157Zm-9.869-15.89-1.633-.195a11.087,11.087,0,0,0-1.317-.082,9.393,9.393,0,0,0-1.2.072l-1.613.174-2.3-2.426a13.607,13.607,0,0,0-3.347,1.935l.939,3.153L38.734,36.8a10.9,10.9,0,0,0-1.306,2.242l-.643,1.505L33.6,41.3a13.88,13.88,0,0,0,0,3.829l3.184.758.643,1.505a14.035,14.035,0,0,0,1.306,2.242l1.01,1.331-.939,3.143a13.608,13.608,0,0,0,3.347,1.935l2.3-2.426,1.613.184a11.714,11.714,0,0,0,1.2.061,11.087,11.087,0,0,0,1.317-.082l1.633-.195,2.327,2.457a13.608,13.608,0,0,0,3.347-1.935l-.98-3.276.98-1.31a10.656,10.656,0,0,0,1.2-2.1l.653-1.495,3.347-.8a13.88,13.88,0,0,0,0-3.829l-3.347-.8-.653-1.495a10.958,10.958,0,0,0-1.2-2.1l-.98-1.31.98-3.276a13.607,13.607,0,0,0-3.347-1.935Z" transform="translate(0.007 -8)" fill="#489ac2"/>
</svg>
