<svg xmlns="http://www.w3.org/2000/svg" width="131" height="124.691" viewBox="0 0 131 124.691">
  <g id="Group_43506" data-name="Group 43506" transform="translate(-3850 1501)">
    <g id="Group_43500" data-name="Group 43500" transform="translate(604 -510)">
      <circle id="Ellipse_2255" data-name="Ellipse 2255" cx="34" cy="34" r="34" transform="translate(3246 -991)" fill="rgba(106,141,235,0.26)"/>
      <circle id="Ellipse_2256" data-name="Ellipse 2256" cx="15.5" cy="15.5" r="15.5" transform="translate(3346 -902)" fill="rgba(106,141,235,0.26)"/>
    </g>
    <path id="bell-ring" d="M98.353,72.3,80.565,101.328A24.688,24.688,0,0,1,62.314,113.01a25.065,25.065,0,0,1-2.962.174,24.579,24.579,0,0,1-14.148-4.5A22.358,22.358,0,0,1,13.66,77.716l-6.2-6.192a24.825,24.825,0,0,1,4.5-38.671l27.2-16.817a41.779,41.779,0,0,1,48.7,2.6l7.824-7.824a4.716,4.716,0,1,1,6.669,6.669L94.538,25.3a42.212,42.212,0,0,1,3.815,47ZM38.018,102.088,20.479,84.544a12.832,12.832,0,0,0,2.183,15.393A13.332,13.332,0,0,0,38.018,102.088ZM84.8,28.519a32.479,32.479,0,0,0-40.637-4.466L16.923,40.87a15.4,15.4,0,0,0-2.792,23.985L48.511,99.239a15.4,15.4,0,0,0,24.018-2.83L90.237,67.524A32.715,32.715,0,0,0,84.8,28.5Zm6.032,84.665a4.716,4.716,0,0,1-2.787-8.526,40.713,40.713,0,0,0,15.633-25.5,4.716,4.716,0,1,1,9.211,2.028,50.461,50.461,0,0,1-19.279,31.092,4.716,4.716,0,0,1-2.778.905ZM4.7,27.066A4.716,4.716,0,0,1,.927,19.549,50.423,50.423,0,0,1,32.585.1a4.717,4.717,0,0,1,1.886,9.243,40.727,40.727,0,0,0-26,15.817A4.716,4.716,0,0,1,4.7,27.066Z" transform="translate(3859.496 -1489.494)" fill="#6a8deb"/>
  </g>
</svg>
