<svg xmlns="http://www.w3.org/2000/svg" width="131" height="121.506" viewBox="0 0 131 121.506">
  <g id="Group_43506" data-name="Group 43506" transform="translate(-3850 1501)">
    <g id="Group_43500" data-name="Group 43500" transform="translate(604 -510)">
      <circle id="Ellipse_2255" data-name="Ellipse 2255" cx="34" cy="34" r="34" transform="translate(3246 -991)" fill="rgba(255,167,0,0.3)"/>
      <circle id="Ellipse_2256" data-name="Ellipse 2256" cx="15.5" cy="15.5" r="15.5" transform="translate(3346 -902)" fill="rgba(255,167,0,0.3)"/>
    </g>
    <path id="triangle-warning" d="M51.789,57.571V29.286a4.711,4.711,0,1,1,9.422,0V57.571a4.711,4.711,0,1,1-9.422,0ZM56.5,67a7.071,7.071,0,1,0,7.066,7.071A7.059,7.059,0,0,0,56.5,67Zm54.553,23.006C107.755,96.37,100.83,100,92.162,100H20.885c-8.715,0-15.593-3.63-18.891-9.994-3.345-6.411-2.4-14.614,2.355-21.5L42.226,8.543A17.3,17.3,0,0,1,56.5,1,17.084,17.084,0,0,1,70.633,8.4L108.7,68.6c4.758,6.883,5.653,15.039,2.308,21.4ZM100.924,73.883a.329.329,0,0,1-.094-.189L62.813,13.587a7.846,7.846,0,0,0-12.72.189L12.17,73.694c-2.921,4.149-3.58,8.674-1.884,11.927,1.649,3.206,5.418,4.95,10.553,4.95H92.068c5.135,0,8.9-1.744,10.553-4.95,1.7-3.253,1.036-7.779-1.743-11.739Z" transform="translate(3859.992 -1479.494)" fill="#ffa700"/>
  </g>
</svg>
