<svg xmlns="http://www.w3.org/2000/svg" xmlns:xlink="http://www.w3.org/1999/xlink" width="299.47" height="249.161" viewBox="0 0 299.47 249.161">
  <defs>
    <linearGradient id="linear-gradient" x1="0.583" y1="0.453" x2="-0.685" y2="1.194" gradientUnits="objectBoundingBox">
      <stop offset="0" stop-color="#30bfc6"/>
      <stop offset="0.794" stop-color="#2a36ff"/>
    </linearGradient>
    <linearGradient id="linear-gradient-2" x1="0.577" y1="0.455" x2="-0.688" y2="1.22" xlink:href="#linear-gradient"/>
    <clipPath id="clip-path">
      <path id="Path_79785" data-name="Path 79785" d="M368.993,355.215s9.788-14.466,16.313-13.711,6.525,4.306,10.254,3.229,3.728-.243,5.127,2.6l5.593,7.879s-2.8,3.634-5.593,0-3.212-2.751-8.39,1.615c-4.661,3.93-9.321,7.15-13.982,5.378C378.314,362.208,372.2,353.375,368.993,355.215Z" transform="translate(-368.993 -341.476)" fill="none"/>
    </clipPath>
    <clipPath id="clip-path-2">
      <path id="Path_79795" data-name="Path 79795" d="M307.646,341.917s-25.505,14.313-30.93,20.953c-3.349-8.7-8.378-21.855-8.687-23.131-.466-1.923-9.738-28.011-21.415-25.92,0,0-16.338,19.317,6.034,53.35l10.187,12.741h0l.918,1.148.264.33c0,.007,5.88,15.773,22.189,4.745s30.761-37.224,30.761-37.224S316.5,339.492,307.646,341.917Z" transform="translate(-240.857 -313.7)" fill="#d4e6fc"/>
    </clipPath>
    <linearGradient id="linear-gradient-3" x1="0.523" y1="0.467" x2="-1.319" y2="2.287" xlink:href="#linear-gradient"/>
  </defs>
  <g id="Group_43644" data-name="Group 43644" transform="translate(-533 -1234.92)">
    <path id="Path_79771" data-name="Path 79771" d="M287.258,400.531c-2.28,2.583-6.173,4-8.7,3.164L74.236,328.345c-2.523-.835-2.72-3.606-.441-6.189l86.868-61.873c2.279-2.583,6.172-4,8.695-3.165l200.291,64.637c2.522.835,2.719,3.606.44,6.188Z" transform="translate(460.793 1080.146)" fill="#7deadd"/>
    <path id="Path_79772" data-name="Path 79772" d="M394.448,377.824s37.539,1.96,92.378-44.408l-23.245-7.5L362.531,295.944Z" transform="translate(321.795 1061.442)" fill="#2eb0d8" opacity="0.4"/>
    <path id="Path_79773" data-name="Path 79773" d="M455.61,247.122a5.342,5.342,0,0,1-5.443,2.369L347.7,215.315c-1.832-.509-2.366-2.4-1.192-4.214l21.161-77.228a5.343,5.343,0,0,1,5.442-2.369l102.008,28.372c1.832.509,2.365,2.4,1.192,4.214Z" transform="translate(329.766 1140.232)" fill="url(#linear-gradient)"/>
    <path id="Path_79774" data-name="Path 79774" d="M555.786,168.976a3.03,3.03,0,0,1-3.087,1.344l-56.755-16.876c-1.039-.289-1.342-1.359-.676-2.39l11.014-41.99a3.03,3.03,0,0,1,3.087-1.344l54.641,14.742c1.039.289,3.323,1.359,2.658,2.39Z" transform="translate(258.414 1151.581)" opacity="0.7" fill="url(#linear-gradient-2)"/>
    <path id="Path_79775" data-name="Path 79775" d="M444.547,237.527s-6.01,1.072-8.492,13.922l-4.869,28.915,17.243,5.751,7.451-38.646s1.535-8.755-1.653-9.259Z" transform="translate(288.926 1089.41)" fill="#26749b"/>
    <path id="Path_79776" data-name="Path 79776" d="M105.206,429.207s3.4,24.949,38.136,28.492c0,0,18.028-20.775,15.328-23.618S105.441,418.2,105.206,429.207Z" transform="translate(444.994 999.72)" fill="#d4e6fc"/>
    <path id="Path_79777" data-name="Path 79777" d="M303.492,403.6s-22.224,22.988-32.28,23.509l-39.03-13.584,5.708-42.612Z" transform="translate(384.203 1025.549)" fill="#2eb0d8"/>
    <path id="Path_79778" data-name="Path 79778" d="M351,379.487c-1.294,1.574-3.565,2.492-5.073,2.051l-83.49-29.586c-1.508-.441-1.682-2.075-.388-3.649l51.293-42.441c1.293-1.574,3.565-2.492,5.073-2.051l84.6,28.239c1.508.441,1.682,2.075.388,3.648Z" transform="translate(370.32 1057.729)" fill="#66a1d1"/>
    <path id="Path_79779" data-name="Path 79779" d="M385.224,361.866c-1.14,1.386-3.14,2.195-4.468,1.806L307.22,337.614c-1.328-.388-1.481-1.827-.342-3.214l19.038-16.056c1.14-1.386,3.14-2.2,4.469-1.807L404.9,341.409c1.328.389,1.481,1.827.342,3.213Z" transform="translate(348.805 1051.629)" fill="#d4e6fc"/>
    <path id="Path_79780" data-name="Path 79780" d="M355.5,397.57s7.379-10.216,9.862-19.657c0,0,.619-4.44,4.036-5.387s13.915-5.417,15.855-11.271c0,0,3.637-3.129-3.738-2.927s-40.7,27.745-40.7,27.745l6.9,8.737Z" transform="translate(332.191 1031.58)" fill="#276793" opacity="0.5"/>
    <path id="Path_79781" data-name="Path 79781" d="M299.155,360.579s18.461-14.973,20.992-27.6c0,0,1.656-10.4,15.609-9.184,0,0-15.875-4.063-23.332.442S292.79,344.2,292.79,344.2Z" transform="translate(355.184 1048.913)" fill="#276793" opacity="0.5"/>
    <path id="Path_79782" data-name="Path 79782" d="M318.023,298.127l6.059-11.6s3.263-6.368,6.525-4,7.457,2.537,9.321,1.518,7.817,2.617,6.239,5.227-18.357,16.45-18.357,16.45S318.023,309.972,318.023,298.127Z" transform="translate(343.104 1068.121)" fill="#efb77f"/>
    <path id="Path_79783" data-name="Path 79783" d="M368.993,355.215s9.788-14.466,16.313-13.711,6.525,4.306,10.254,3.229,3.728-.243,5.127,2.6l5.593,7.879s-2.8,3.634-5.593,0-3.38-2.944-8.39,1.615c-5.908,5.378-9.321,7.15-13.982,5.378C378.314,362.208,372.2,353.375,368.993,355.215Z" transform="translate(318.701 1039.643)" fill="#efb77f"/>
    <g id="Group_43226" data-name="Group 43226" transform="translate(687.693 1381.119)" clip-path="url(#clip-path)">
      <path id="Path_79784" data-name="Path 79784" d="M368.993,362.884s17.666-10.509,29.573-2.178c0,0-9.787,17.023-14.786,15.473S368.993,362.884,368.993,362.884Z" transform="translate(-368.993 -349.145)" fill="#efb77f"/>
    </g>
    <path id="Path_79786" data-name="Path 79786" d="M165.716,224.065l-2.6,15.975,25.634,6.667s-1.341-22.93,4.282-22.642c0,0-12.558-27.16-14.958-20.986S166.618,218.521,165.716,224.065Z" transform="translate(417.27 1106.34)" fill="#efb77f"/>
    <path id="Path_79787" data-name="Path 79787" d="M151.487,176.74s4.2,23.788,5.729,27.182,4.919,6.779,8.438,1.141,4.192-11.127,4.529-15.28S161.249,152.188,151.487,176.74Z" transform="translate(422.836 1122.786)" fill="#123a4c"/>
    <path id="Path_79788" data-name="Path 79788" d="M204.438,158.991s16.156,47.33-9.942,39.081c0,0-13.049-7.941-15.534-14.309,0,0-4.971,12.186-8.078-4.858s2.486-13.7,6.835-11.331c0,0-5.592-14.768,9.321-18.629C187.04,148.946,201.433,148.021,204.438,158.991Z" transform="translate(413.98 1131.829)" fill="#efb77f"/>
    <path id="Path_79789" data-name="Path 79789" d="M185.216,215.763s10.069,13.344,15.534,14.309c0,0-2.174,6.847-2.371,10.958,0,0-14.732-11.232-15.332-17.536Z" transform="translate(407.727 1099.83)" fill="#e8754d"/>
    <path id="Path_79790" data-name="Path 79790" d="M160.547,270.771s14.448-5.311,25.634,6.667v5.892s-23.3-10.756-28.431-4.2Z" transform="translate(419.838 1074.056)" fill="#97b1c9"/>
    <path id="Path_79791" data-name="Path 79791" d="M130.261,285.549l-20.4,4.763s-11.186.673-9.322,14.332,2.33,56.645,2.33,56.645l66.183,10.147s19.159-67.725,10.279-72.314-20.643-9.374-20.643-9.374S137.607,277.963,130.261,285.549Z" transform="translate(447.326 1067.638)" fill="#d4e6fc"/>
    <path id="Path_79792" data-name="Path 79792" d="M218.936,313.929s-17.27,16.79-13.541,38.1-15.189,31.106-22.348,29.9l25.611,4.308,8.421-34.21Z" transform="translate(407.727 1052.832)" fill="#92b8dd"/>
    <path id="Path_79793" data-name="Path 79793" d="M307.646,341.917s-25.505,14.313-30.93,20.953c-3.349-8.7-8.378-21.855-8.687-23.131-.466-1.923-9.738-28.011-21.415-25.92,0,0-16.338,19.317,6.034,53.35l10.187,12.741h0l.918,1.148.264.33c0,.007,5.88,15.773,22.189,4.745s30.761-37.224,30.761-37.224S316.5,339.492,307.646,341.917Z" transform="translate(380.049 1052.941)" fill="#d4e6fc"/>
    <g id="Group_43227" data-name="Group 43227" transform="translate(620.906 1366.641)" clip-path="url(#clip-path-2)">
      <path id="Path_79794" data-name="Path 79794" d="M239,321.145s6.071-1.277,11.664,11.335,8.475,48.334,16.589,44.978,23.565-10.149,20.232.222c0,0,3.584,6.461,12.137-5.681,0,0-20.526,46.423-47.093,17.681S229.2,327.027,239,321.145Z" transform="translate(-236.542 -317.247)" fill="#92b8dd"/>
    </g>
    <path id="Path_79796" data-name="Path 79796" d="M239.521,337.689a57.062,57.062,0,0,0-1.8,33.229s2.893,2.731,1.136,9.6l3.856-16.75S236.419,350.927,239.521,337.689Z" transform="translate(382.359 1041.456)" fill="#568db7"/>
    <path id="Path_79797" data-name="Path 79797" d="M236.827,388.472a61.378,61.378,0,0,1-.3,24.49l5.026-20.419S238.15,381.062,236.827,388.472Z" transform="translate(382.123 1018.335)" fill="#568db7"/>
    <path id="Path_79798" data-name="Path 79798" d="M193.518,175.35s1.061-7.006,12.486-8.108c0,0,8.787.88,10.79-3.37l-1.089-3.513S199.466,133.284,193.518,175.35Z" transform="translate(402.713 1130.462)" fill="#e8754d"/>
    <path id="Path_79799" data-name="Path 79799" d="M164.958,155.2s4.066,3.124,4.532,6.407c0,0,.466-7.8,5.593-10.415s28.9-8.517,24.236-20.48-33.351-8.182-47.54-.1c-15.567,8.865-7.353,30.1,6.344,35.92C158.123,166.534,155.765,152.037,164.958,155.2Z" transform="translate(426.742 1144.201)" fill="#123a4c"/>
    <path id="Path_79800" data-name="Path 79800" d="M376.852,352.719s2.883,5.13,14.083,2.565c0,0-12.677,4.126-18.915,3.136Z" transform="translate(317.252 1034.26)" fill="none"/>
    <path id="Path_79801" data-name="Path 79801" d="M380.028,344.011s-7.307-6.368-11.035,11.9Z" transform="translate(318.701 1038.943)" fill="#e8754d"/>
    <path id="Path_79802" data-name="Path 79802" d="M277.322,322.274l21.215-9.328s7.924,1.386,9.788,7.588c0,0-8.659,17.427-21.109,23.7C287.216,344.233,279.406,325.1,277.322,322.274Z" transform="translate(362.59 1053.303)" fill="#92b8dd"/>
    <path id="Path_79803" data-name="Path 79803" d="M365.9,288.61s12.584,3.544,9.322,5.9-6.406-2.649-12.69,2.845C362.531,297.355,362.593,287.545,365.9,288.61Z" transform="translate(321.795 1064.992)" fill="#efb77f"/>
    <path id="Path_79804" data-name="Path 79804" d="M346.736,310.095s.672,6.259,6.265,5.33c0,0,5.909-.243,5.518,1.977,0,0-20.642.939-22.607,2.731,0,0-1.554-9.313,2.175-10.038A30.935,30.935,0,0,1,346.736,310.095Z" transform="translate(334.693 1054.821)" fill="#efb77f"/>
    <path id="Path_79805" data-name="Path 79805" d="M194.237,431.427s-28.29,7.056-17.953,29.415l38.326,8.966-10.279-15.5s-1.953-3.875,0-11.807Z" transform="translate(412.051 996.577)" fill="#92b8dd"/>
    <path id="Path_79806" data-name="Path 79806" d="M281.99,326.9s9.054,10.311,5.226,24.012l-9.894-21.959Z" transform="translate(362.59 1046.619)" fill="#568db7"/>
    <path id="Path_79807" data-name="Path 79807" d="M457.317,222.409l-1.783,6.679,10.35-1.826.889-12.6S459.1,215.73,457.317,222.409Z" transform="translate(277.268 1100.358)" fill="#efb77f"/>
    <path id="Path_79808" data-name="Path 79808" d="M456.819,226.579s10.034-4.328,10.367-9.049l.2-2.87s-8.343,3.579-9.456,7.749Z" transform="translate(276.652 1100.358)" fill="#e8754d"/>
    <path id="Path_79809" data-name="Path 79809" d="M447.629,196.315s-3.164,15.8,7.07,13.551a9.712,9.712,0,0,0,6.173-6.335s2.942,5.167,5.426-1.932c0,0,1.683-9.8-4.656-4.3,0,0,1.606-7.95-6.837-8.417C454.806,188.887,448.531,191.079,447.629,196.315Z" transform="translate(281.273 1112.697)" fill="#efb77f"/>
    <path id="Path_79810" data-name="Path 79810" d="M444.018,190.916s-4.812,2.254.611,7.947c0,0,.18-8.489,7.727-10.142C452.356,188.72,445.978,187.6,444.018,190.916Z" transform="translate(283.725 1112.864)" fill="#123a4c"/>
    <path id="Path_79811" data-name="Path 79811" d="M449.256,194.8a11.335,11.335,0,0,0,8.739.616s4.951-1.685,4.648,2.319c0,0,3.849-7.393.557-7.9s-12.619,3.078-12.619,3.078Z" transform="translate(280.273 1112.265)" fill="#e8754d"/>
    <path id="Path_79812" data-name="Path 79812" d="M459.393,193.13s7.125-6.974.71-10.071-12.489,2.425-17.537-2.89c0,0-1.146,6.858,4.464,8.413S460.163,186.9,459.393,193.13Z" transform="translate(283.523 1116.872)" fill="#123a4c"/>
    <path id="Path_79813" data-name="Path 79813" d="M454.389,240.2s-3.507,7.146,1.242,7.2c0,0,8.422.711,9.108-9.022a11.571,11.571,0,0,0-10.35,1.826Z" transform="translate(278.414 1089.248)" fill="#efb77f"/>
    <path id="Path_79814" data-name="Path 79814" d="M436.246,237.424s-12.579-2.713-17.57,18.528l-4.828,21.3,9.037,3.014S428.489,237.156,436.246,237.424Z" transform="translate(297.227 1089.514)" fill="#fff"/>
    <path id="Path_79815" data-name="Path 79815" d="M470.065,238.837a17.112,17.112,0,0,1,9.764,13.239l-6.612,37.651-8.951-2.985S474.027,242.721,470.065,238.837Z" transform="translate(273.088 1088.783)" fill="#fff"/>
    <path id="Path_79816" data-name="Path 79816" d="M413.611,241.883s-15.508,12.728-18.643,5.06l-1.471-4.822-9.19,5.069s.972,19.654,19.584,13.784l7.013-3.149S415.6,248.447,413.611,241.883Z" transform="translate(311.369 1087.325)" fill="#fff"/>
    <path id="Path_79817" data-name="Path 79817" d="M418.034,269.036s.665-6.353,3.084-10.316a16.373,16.373,0,0,0-7.27,11.263Z" transform="translate(297.227 1079.264)" fill="#84d8d5"/>
    <path id="Path_79818" data-name="Path 79818" d="M387.913,236.944a42.654,42.654,0,0,1,2.431-14.3h4.879v10.266Z" transform="translate(309.643 1096.535)" fill="#efb77f"/>
    <path id="Path_79819" data-name="Path 79819" d="M387.913,240.253s7.31-7.092,7.31-10.695v6.663Z" transform="translate(309.643 1093.226)" fill="#e8754d"/>
    <path id="Path_79820" data-name="Path 79820" d="M483.976,246.952s14.157,11.77,14.156,34.364l-10.078.512s0-10.566-6.442-18.421C481.612,263.407,480.514,245.629,483.976,246.952Z" transform="translate(264.861 1084.932)" fill="#fff"/>
    <path id="Path_79821" data-name="Path 79821" d="M485.273,282.156A17.27,17.27,0,0,1,482.626,272s-4.764,11.156,1.3,17.821Z" transform="translate(265.148 1072.908)" fill="#84d8d5"/>
    <path id="Path_79822" data-name="Path 79822" d="M493.594,309.032s.308,1.244-.577,7.82h10.655a85.568,85.568,0,0,0-.22-13.151S493.7,305.64,493.594,309.032Z" transform="translate(259.322 1057.729)" fill="#fff"/>
    <path id="Path_79823" data-name="Path 79823" d="M491.255,328.932l-1.917,5.3,8.48,2.938,2.176-8.242Z" transform="translate(261.084 1045.648)" fill="#efb77f"/>
    <path id="Path_79824" data-name="Path 79824" d="M499.995,328.932s-7.42.955-8.162,6.168l-2.494-.864,1.917-5.3Z" transform="translate(261.084 1045.648)" fill="#e8754d"/>
    <path id="Path_79825" data-name="Path 79825" d="M393.922,214.235s-2.431-13.993-3.655-7c0,0-10.544-8.075-1.224,7C389.043,214.235,390.471,224.228,393.922,214.235Z" transform="translate(310.943 1104.946)" fill="#efb77f"/>
    <path id="Path_79826" data-name="Path 79826" d="M478.018,194.07s4.541-4.346,1.773,6.856c0,0,.481-6.91-4.853-2.183C474.938,198.743,476.245,187.215,478.018,194.07Z" transform="translate(267.979 1111.258)" fill="#123a4c"/>
    <path id="Path_79827" data-name="Path 79827" d="M537.11,131.227a4.984,4.984,0,0,0-5.626,2.522l-.454,1.051c-.835,1.933.33,3.937,2.6,4.477l4.934,1.172,3.478-8.05Z" transform="translate(241.252 1140.368)" fill="#7deadd"/>
    <path id="Path_79828" data-name="Path 79828" d="M557.162,140.5l.454-1.051c.835-1.933-.33-3.937-2.6-4.477l-5.8-1.377-3.478,8.05,5.8,1.377A4.984,4.984,0,0,0,557.162,140.5Z" transform="translate(234.08 1139.168)" fill="#fff"/>
    <path id="Path_79829" data-name="Path 79829" d="M397.073,185.387a3.375,3.375,0,0,1-4.142,2.122l-8.17-2.118a3.121,3.121,0,0,1-2.4-3.817l1.959-6.661a3.375,3.375,0,0,1,4.143-2.123l8.17,2.118a3.121,3.121,0,0,1,2.395,3.817Z" transform="translate(312.344 1120.471)" fill="#7deadd"/>
    <path id="Path_79830" data-name="Path 79830" d="M402.966,170.807c-.153.52-1.166.712-2.262.427l-4.961-1.286c-1.1-.284-1.861-.936-1.708-1.457l.622-2.113c.153-.52,1.166-.712,2.262-.428l4.961,1.286c1.1.284,1.861.936,1.708,1.457Z" transform="translate(306.721 1123.741)" fill="#fff"/>
    <path id="Path_79831" data-name="Path 79831" d="M397.836,182.8l-1.661-.431.444-1.509a1.262,1.262,0,0,0-.969-1.544,1.365,1.365,0,0,0-1.675.858l-.444,1.509-1.661-.43a1.365,1.365,0,0,0-1.675.858,1.262,1.262,0,0,0,.969,1.544l1.66.43-.444,1.509a1.262,1.262,0,0,0,.969,1.544,1.365,1.365,0,0,0,1.675-.858l.444-1.509,1.66.431a1.365,1.365,0,0,0,1.675-.858,1.262,1.262,0,0,0-.968-1.544Z" transform="translate(308.568 1117.306)" fill="#fff"/>
    <path id="Path_79832" data-name="Path 79832" d="M531.406,161.3a1.258,1.258,0,0,1-1.608.657l-13.67-3.429c-.75-.188-1.246-.787-1.108-1.338h0a1.258,1.258,0,0,1,1.608-.657l13.67,3.429c.75.188,1.246.787,1.108,1.338Z" transform="translate(248.799 1128.214)" fill="#fff"/>
    <path id="Path_79833" data-name="Path 79833" d="M559.3,176.575a1.258,1.258,0,0,1-1.608.657l-13.67-3.429c-.75-.188-1.246-.787-1.108-1.338h0a1.258,1.258,0,0,1,1.608-.657l13.67,3.429C558.945,175.424,559.441,176.023,559.3,176.575Z" transform="translate(235.443 1120.902)" fill="#fff"/>
    <path id="Path_79834" data-name="Path 79834" d="M556.724,167.721c-.138.551-.449.948-.694.886l-4.469-1.121c-.245-.061-.332-.558-.194-1.109h0c.138-.551.449-.948.694-.886l4.47,1.121c.245.062.332.558.193,1.109Z" transform="translate(231.418 1123.902)" fill="#fff"/>
    <path id="Path_79835" data-name="Path 79835" d="M570.783,171.039c-.138.551-.449.948-.694.886L565.62,170.8c-.245-.061-.332-.558-.194-1.109h0c.138-.551.449-.948.694-.886l4.469,1.121C570.835,169.992,570.922,170.488,570.783,171.039Z" transform="translate(224.688 1122.313)" fill="#fff"/>
    <path id="Path_79836" data-name="Path 79836" d="M531.867,169.3c-.138.551-.449.948-.694.886l-4.469-1.121c-.245-.062-.332-.558-.194-1.109h0c.138-.551.449-.948.694-.886l4.469,1.121C531.919,168.256,532.005,168.752,531.867,169.3Z" transform="translate(243.318 1123.145)" fill="#fff"/>
    <path id="Path_79837" data-name="Path 79837" d="M407.43,64.511H384.561a4.947,4.947,0,0,0-4.947,4.947v6.927a4.947,4.947,0,0,0,4.947,4.947h16.532l7.564,13.358-2.985-13.358h1.757a4.947,4.947,0,0,0,4.947-4.947V69.458a4.947,4.947,0,0,0-4.947-4.947Z" transform="translate(313.615 1172.245)" fill="url(#linear-gradient-3)"/>
    <path id="Path_79838" data-name="Path 79838" d="M171.017,60.988h22.868a4.947,4.947,0,0,1,4.947,4.947v6.927a4.947,4.947,0,0,1-4.947,4.947H177.354L169.79,91.167l2.985-13.358h-1.757a4.947,4.947,0,0,1-4.947-4.947V65.935a4.947,4.947,0,0,1,4.947-4.947Z" transform="translate(415.854 1173.932)" fill="#d4e6fc"/>
    <path id="Path_79839" data-name="Path 79839" d="M195.733,217.6s2.678-7.3,6.553-9.251l9.28,7.454s-5.433,4.907-4.743,10.721C206.824,226.52,198.545,223.395,195.733,217.6Z" transform="translate(401.652 1103.382)" fill="#fff"/>
  </g>
</svg>
