<svg xmlns="http://www.w3.org/2000/svg" width="51.563" height="51.563" viewBox="0 0 51.563 51.563">
  <path id="headset-light" d="M3.222,25.782a22.555,22.555,0,1,1,45.109,0V40.294A4.835,4.835,0,0,1,43.5,45.128l-8.327-.01A4.846,4.846,0,0,0,30.61,41.9H24.166a4.834,4.834,0,0,0,0,9.668H30.61a4.846,4.846,0,0,0,4.561-3.223l8.327.01a8.062,8.062,0,0,0,8.065-8.057V25.782A25.782,25.782,0,1,0,0,25.782v4.834a1.611,1.611,0,1,0,3.222,0Zm29,20.948a1.616,1.616,0,0,1-1.611,1.611H24.166a1.611,1.611,0,0,1,0-3.223H30.61a1.616,1.616,0,0,1,1.611,1.611M14.5,22.559H16.11V35.45H14.5a4.835,4.835,0,0,1-4.833-4.834V27.393A4.835,4.835,0,0,1,14.5,22.559ZM6.444,27.393v3.223A8.054,8.054,0,0,0,14.5,38.673H16.11a3.219,3.219,0,0,0,3.222-3.223V22.559a3.219,3.219,0,0,0-3.222-3.223H14.5A8.054,8.054,0,0,0,6.444,27.393Zm29-4.834h1.611a4.835,4.835,0,0,1,4.833,4.834v3.223a4.835,4.835,0,0,1-4.833,4.834H35.443Zm1.611-3.223H35.443a3.219,3.219,0,0,0-3.222,3.223V35.45a3.219,3.219,0,0,0,3.222,3.223h1.611a8.054,8.054,0,0,0,8.055-8.057V27.393A8.054,8.054,0,0,0,37.054,19.336Z" fill="#489ac2"/>
</svg>
