<svg xmlns="http://www.w3.org/2000/svg" width="35.759" height="35.759" viewBox="0 0 35.759 35.759">
  <path id="headset-regular" d="M3.258,17.379a14.118,14.118,0,1,1,28.236,0v9.783a2.715,2.715,0,0,1-2.715,2.716l-7.493-.007a3.249,3.249,0,0,0-2.824-1.629H16.29a3.259,3.259,0,0,0,0,6.517h2.172a3.263,3.263,0,0,0,2.824-1.629l7.493.007a5.979,5.979,0,0,0,5.98-5.974V17.379A17.379,17.379,0,1,0,0,17.379v2.716a1.629,1.629,0,1,0,3.258,0Zm7.6-2.172v7.6a2.17,2.17,0,0,1-2.172-2.172V17.379A2.17,2.17,0,0,1,10.86,15.207ZM5.43,17.379v3.259a5.429,5.429,0,0,0,5.43,5.431h1.086A2.17,2.17,0,0,0,14.118,23.9V14.121a2.17,2.17,0,0,0-2.172-2.172H10.86A5.429,5.429,0,0,0,5.43,17.379Zm18.462-2.172a2.17,2.17,0,0,1,2.172,2.172v3.259a2.17,2.17,0,0,1-2.172,2.172Zm5.43,2.172a5.429,5.429,0,0,0-5.43-5.431H22.806a2.17,2.17,0,0,0-2.172,2.172V23.9a2.17,2.17,0,0,0,2.172,2.172h1.086a5.429,5.429,0,0,0,5.43-5.431Z" transform="translate(0.5 0.5)" stroke="#f9f9f9" stroke-width="1"/>
</svg>
