<svg id="Group_43420" data-name="Group 43420" xmlns="http://www.w3.org/2000/svg" width="15.461" height="18.399" viewBox="0 0 15.461 18.399">
  <path id="apple_2_" data-name="apple (2)" d="M16.927,41.723a3.835,3.835,0,0,1,2.054-3.483A4.413,4.413,0,0,0,15.5,36.407c-1.458-.115-3.052.85-3.635.85-.616,0-2.029-.809-3.138-.809C6.436,36.486,4,38.276,4,41.92a10.238,10.238,0,0,0,.591,3.335c.526,1.507,2.423,5.2,4.4,5.143,1.035-.025,1.766-.735,3.114-.735,1.306,0,1.984.735,3.138.735,2-.029,3.713-3.389,4.214-4.9a4.072,4.072,0,0,1-2.534-3.775ZM14.6,34.978A3.869,3.869,0,0,0,15.588,32,4.355,4.355,0,0,0,12.8,33.434a3.929,3.929,0,0,0-1.052,2.953A3.45,3.45,0,0,0,14.6,34.978Z" transform="translate(-4 -32)"/>
</svg>
