<svg id="icons8-google_1_" data-name="icons8-google (1)" xmlns="http://www.w3.org/2000/svg" width="18.513" height="18.513" viewBox="0 0 18.513 18.513">
  <path id="Path_78458" data-name="Path 78458" d="M22.333,11.444h-.746v-.038H13.257v3.7h5.231a5.558,5.558,0,1,1-1.547-6l2.618-2.618a9.247,9.247,0,1,0,2.954,6.766A9.32,9.32,0,0,0,22.333,11.444Z" transform="translate(-4 -4)" fill="#ffc107"/>
  <path id="Path_78459" data-name="Path 78459" d="M6.306,8.948l3.041,2.23A5.543,5.543,0,0,1,18.18,9.109L20.8,6.491A9.238,9.238,0,0,0,6.306,8.948Z" transform="translate(-5.239 -4)" fill="#ff3d00"/>
  <path id="Path_78460" data-name="Path 78460" d="M14.436,35.434a9.213,9.213,0,0,0,6.206-2.4l-2.865-2.424a5.54,5.54,0,0,1-8.563-2.553L6.2,30.38A9.249,9.249,0,0,0,14.436,35.434Z" transform="translate(-5.179 -16.921)" fill="#4caf50"/>
  <path id="Path_78461" data-name="Path 78461" d="M33.076,20.038h-.746V20H24v3.7h5.231a5.572,5.572,0,0,1-1.892,2.578h0L30.206,28.7a8.954,8.954,0,0,0,3.05-6.853A9.32,9.32,0,0,0,33.076,20.038Z" transform="translate(-14.743 -12.595)" fill="#1976d2"/>
</svg>
