<svg xmlns="http://www.w3.org/2000/svg" width="73.662" height="51.563" viewBox="0 0 73.662 51.563">
  <path id="laptop-medical-light" d="M9.208,68.831a1.844,1.844,0,0,0,1.842-1.842V39.366a3.687,3.687,0,0,1,3.683-3.683h44.2a3.687,3.687,0,0,1,3.683,3.683V66.989a1.842,1.842,0,1,0,3.683,0V39.366A7.375,7.375,0,0,0,58.93,32h-44.2a7.375,7.375,0,0,0-7.366,7.366V66.989A1.844,1.844,0,0,0,9.208,68.831Zm62.613,3.683H1.842A1.858,1.858,0,0,0,0,74.356V76.2a7.38,7.38,0,0,0,7.366,7.366H66.3A7.38,7.38,0,0,0,73.662,76.2V74.356A1.854,1.854,0,0,0,71.821,72.514ZM66.3,79.88H7.366A3.688,3.688,0,0,1,3.683,76.2h66.3A3.694,3.694,0,0,1,66.3,79.88ZM34.99,65.148h3.683a1.842,1.842,0,0,0,1.842-1.842V57.678h5.525A1.823,1.823,0,0,0,47.88,55.94V52.153a1.829,1.829,0,0,0-1.842-1.738H40.514V44.891a1.847,1.847,0,0,0-1.842-1.842H34.99a1.847,1.847,0,0,0-1.842,1.842v5.525H27.623a1.829,1.829,0,0,0-1.842,1.738V55.94a1.756,1.756,0,0,0,1.842,1.738h5.525V63.2A1.872,1.872,0,0,0,34.99,65.148Z" transform="translate(0 -32)" fill="#489ac2"/>
</svg>
