<svg xmlns="http://www.w3.org/2000/svg" width="24.001" height="23.999" viewBox="0 0 24.001 23.999">
  <g id="Layer_18" data-name="Layer 18" transform="translate(-2.505 -2.505)">
    <path id="Path_109366" data-name="Path 109366" d="M4.24,34.075a5.89,5.89,0,1,0,4.192-1.752A5.927,5.927,0,0,0,4.24,34.075Zm-.517,4.19a4.707,4.707,0,0,1,7.574-3.73L4.7,41.141a4.67,4.67,0,0,1-.976-2.876Z" transform="translate(0 -17.688)" fill="#66d3eb"/>
    <path id="Path_109367" data-name="Path 109367" d="M40.678,40.678a4.5,4.5,0,1,0,6.37,0A4.5,4.5,0,0,0,40.678,40.678Zm5.894,5.044-4.56-4.572a3.283,3.283,0,0,1,4.56,4.572Z" transform="translate(-21.863 -21.863)" fill="#66d3eb"/>
    <path id="Path_109368" data-name="Path 109368" d="M37.161,15.491a6.566,6.566,0,1,0-4.942-.9A6.566,6.566,0,0,0,37.161,15.491Zm-3.751-1.627,5.764-8.921a5.341,5.341,0,0,1-5.764,8.917Z" transform="translate(-15.845)" fill="#66d3eb"/>
  </g>
</svg>
