<svg xmlns="http://www.w3.org/2000/svg" width="66.677" height="51.563" viewBox="0 0 66.677 51.563">
  <path id="money-bill-1-wave-light" d="M33.234,50.314a1.946,1.946,0,0,1,1.956,1.842v9.208h.926a1.923,1.923,0,0,1,1.852,1.842,1.789,1.789,0,0,1-1.852,1.842H30.456A1.851,1.851,0,0,1,28.6,63.206a2.005,2.005,0,0,1,1.852-1.842h.926V54a1.851,1.851,0,0,1-1.852-1.842,2.005,2.005,0,0,1,1.852-1.842ZM46.3,57.681c0,7.482-5.2,14.837-13.069,14.837-7.663,0-12.965-7.355-12.965-14.837,0-7.378,5.3-14.733,12.965-14.733C41.106,42.948,46.3,50.3,46.3,57.681ZM33.234,68.834c5.221,0,9.365-4.949,9.365-11.153,0-6.1-4.144-11.05-9.365-11.05-5.012,0-9.261,4.949-9.261,11.05C23.974,63.885,28.222,68.834,33.234,68.834ZM5.633,37.426c9.231,2.506,18.468.168,27.706-2.173,10.071-2.552,20.142-5.1,30.213-1.366a4.982,4.982,0,0,1,3.125,4.751V74.3c0,2.751-2.963,4.57-5.637,3.844-9.226-2.509-18.464-.173-27.7,2.164-10.175,2.555-20.246,5.111-30.217,1.37A4.973,4.973,0,0,1,0,76.926V41.267c0-2.752,2.965-4.566,5.633-3.841ZM3.6,41.267v8.126a7.262,7.262,0,0,0,7.409-7.367v.046a28.05,28.05,0,0,1-6.352-1.2,1.853,1.853,0,0,0-.8.242.615.615,0,0,0-.154.138Zm.817,36.959a31.211,31.211,0,0,0,6.591,1.519v-.783A7.325,7.325,0,0,0,3.6,71.6v5.329A1.352,1.352,0,0,0,4.417,78.226Zm10.3,1.646a81.151,81.151,0,0,0,16.461-2.808c.5-.127,1-.253,1.5-.38,6-1.531,12.49-3.177,19.181-3.292A11.171,11.171,0,0,1,62.973,62.285V47.552A10.954,10.954,0,0,1,51.86,36.5v-.811c-5.174.11-10.546,1.35-16.357,2.815-.5.125-1,.253-1.5.381-6,1.529-12.49,3.175-19.285,3.29A10.866,10.866,0,0,1,3.6,53.077V67.913a10.952,10.952,0,0,1,11.113,11.05ZM55.564,73.5a34.461,34.461,0,0,1,6.459,1.093,1.007,1.007,0,0,0,.8-.138c.1-.069.139-.127.046-.138h0s.1,0,.1-.012v-8.23a7.394,7.394,0,0,0-7.409,7.367Zm0-37.676V36.5a7.329,7.329,0,0,0,7.409,7.367v-5.23a1.317,1.317,0,0,0-.718-1.3A26.135,26.135,0,0,0,55.564,35.819Z" transform="translate(0 -32.002)" fill="#489ac2"/>
</svg>
