<svg xmlns="http://www.w3.org/2000/svg" width="59.254" height="50.563" viewBox="0 0 59.254 50.563">
  <path id="person-chalkboard-light" d="M68.019,5.53a5.606,5.606,0,0,1-11.21,0,5.606,5.606,0,0,1,11.21,0ZM62.414,3.16a2.37,2.37,0,1,0,2.4,2.37A2.384,2.384,0,0,0,62.414,3.16Zm-4.8,47.4a1.6,1.6,0,0,1-1.6-1.58V19.969l-4.993,9.214a1.611,1.611,0,0,1-2.168.652A1.565,1.565,0,0,1,48.19,27.7l5.886-10.883a8.038,8.038,0,0,1,7.066-4.177H75.226V4.74A4.773,4.773,0,0,1,80.03,0h22.42a4.773,4.773,0,0,1,4.8,4.74V26.862a4.774,4.774,0,0,1-4.8,4.74H80.03a4.774,4.774,0,0,1-4.8-4.74v-7.9h3.2v7.9a1.6,1.6,0,0,0,1.6,1.58h22.42a1.6,1.6,0,0,0,1.6-1.58V4.74a1.593,1.593,0,0,0-1.6-1.58H80.03a1.593,1.593,0,0,0-1.6,1.58v7.9h4.8a1.58,1.58,0,1,1,0,3.16H68.82V48.983a1.6,1.6,0,0,1-3.2,0V34.762H59.211V48.983a1.6,1.6,0,0,1-1.6,1.58ZM61.143,15.8a4.582,4.582,0,0,0-1.932.4V31.6h6.406V15.8Z" transform="translate(-48.001)" fill="#489ac2"/>
</svg>
