<svg xmlns="http://www.w3.org/2000/svg" width="48.34" height="51.563" viewBox="0 0 48.34 51.563">
  <path id="shield-check-light" d="M61.369,8.437,42.033.38a4.819,4.819,0,0,0-3.716,0L18.982,8.437A4.8,4.8,0,0,0,16,12.807C16,38.82,35.074,51.57,40.16,51.57c4.965,0,24.18-12.559,24.18-38.763A4.8,4.8,0,0,0,61.369,8.437Zm-.262,4.491c0,22.69-16.738,35.42-20.927,35.42-4.31-.091-20.958-12.871-20.958-35.45a1.611,1.611,0,0,1,.982-1.485L39.541,3.355a1.634,1.634,0,0,1,.63-.127,1.534,1.534,0,0,1,.616.127l19.336,8.057A1.6,1.6,0,0,1,61.108,12.927ZM48.227,18.265a1.6,1.6,0,0,0-1.139.472l-9.607,9.609-4.23-4.23a1.569,1.569,0,0,0-1.138-.473,1.611,1.611,0,0,0-1.139,2.75l5.372,5.371a1.647,1.647,0,0,0,1.135.469,1.621,1.621,0,0,0,1.139-.472L49.366,21.016a1.611,1.611,0,0,0-1.139-2.751Z" transform="translate(-16 -0.007)" fill="#489ac2"/>
</svg>
