<svg xmlns="http://www.w3.org/2000/svg" width="59.496" height="51.563" viewBox="0 0 59.496 51.563">
  <path id="table-columns-light" d="M52.059,32A7.405,7.405,0,0,1,59.5,39.366V76.2a7.409,7.409,0,0,1-7.437,7.366H7.437A7.405,7.405,0,0,1,0,76.2V39.366A7.4,7.4,0,0,1,7.437,32Zm0,3.683H7.437a3.7,3.7,0,0,0-3.719,3.683v7.366H55.778V39.366A3.7,3.7,0,0,0,52.059,35.683ZM7.437,79.88H27.889V50.416H3.719V76.2A3.7,3.7,0,0,0,7.437,79.88Zm24.17,0H52.059A3.7,3.7,0,0,0,55.778,76.2V50.416H31.607Z" transform="translate(0 -32)" fill="#489ac2"/>
</svg>
