<svg xmlns="http://www.w3.org/2000/svg" width="36.75" height="42" viewBox="0 0 36.75 42">
  <path id="user-doctor-regular" d="M18.375,3.938A6.563,6.563,0,1,1,11.813,10.5a6.563,6.563,0,0,1,6.563-6.563ZM7.875,10.5A10.5,10.5,0,1,0,18.375,0a10.5,10.5,0,0,0-10.5,10.5Zm5.25,18.457a9.892,9.892,0,0,1,1.312-.082h7.875a9.892,9.892,0,0,1,1.313.082v4.02a5.255,5.255,0,0,0-3.937,5.086v2.625A1.316,1.316,0,0,0,21,42h1.969a1.313,1.313,0,0,0,0-2.625h-.656V38.063a2.625,2.625,0,0,1,5.25,0v1.313h-.656a1.313,1.313,0,1,0,0,2.625h1.969a1.316,1.316,0,0,0,1.312-1.312V38.063a5.255,5.255,0,0,0-3.937-5.086V29.638a10.508,10.508,0,0,1,6.562,9.737v.656a1.969,1.969,0,0,0,3.938,0v-.656A14.438,14.438,0,0,0,22.313,24.938H14.438A14.438,14.438,0,0,0,0,39.375v.656a1.969,1.969,0,0,0,3.938,0v-.656A10.508,10.508,0,0,1,10.5,29.638V33a4.594,4.594,0,1,0,2.625,0Zm-1.313,6.48a1.969,1.969,0,1,1-1.969,1.969A1.969,1.969,0,0,1,11.813,35.438Z" fill="#0079cb"/>
</svg>
