<svg xmlns="http://www.w3.org/2000/svg" width="64.454" height="51.563" viewBox="0 0 64.454 51.563">
  <path id="users-medical-light" d="M60.134,34.04h-.806v-.806A4.153,4.153,0,0,0,55.189,29H51.161a4.234,4.234,0,0,0-4.23,4.23v.806h-.806a4.229,4.229,0,0,0-4.23,4.23V42.3a4.216,4.216,0,0,0,4.139,4.23h.806v.806a4.234,4.234,0,0,0,4.23,4.23H55.1a4.158,4.158,0,0,0,4.139-4.23v-.806h.806a4.272,4.272,0,0,0,4.411-4.23V38.27A4.25,4.25,0,0,0,60.134,34.04Zm1.1,8.258a1.007,1.007,0,0,1-1.007,1.007H56.2v4.028a.993.993,0,0,1-.916,1.007H51.251a1.007,1.007,0,0,1-1.007-1.007V43.305H46.216a1.033,1.033,0,0,1-1.1-1.007V38.27a.993.993,0,0,1,.916-1.007h4.028V33.234a1.007,1.007,0,0,1,1.007-1.007H55.1a.934.934,0,0,1,.916,1.007v4.028h4.028a1.063,1.063,0,0,1,1.188,1.007ZM49.952,19.336a7.551,7.551,0,0,0-3.169.7,1.675,1.675,0,0,0-.921,2.063,1.614,1.614,0,0,0,2.2.9,4.425,4.425,0,0,1,1.889-.437h6.554a4.643,4.643,0,0,1,3.983,2.377,1.644,1.644,0,0,0,1.417.846,1.614,1.614,0,0,0,1.38-2.439,7.7,7.7,0,0,0-6.778-4.006Zm1.611-3.223a8.057,8.057,0,1,0-8.057-8.057A8.057,8.057,0,0,0,51.563,16.114Zm0-12.891a4.834,4.834,0,1,1-4.834,4.834A4.839,4.839,0,0,1,51.563,3.223ZM40.284,48.341H16.134c.3-5.379,5.155-9.668,10.987-9.668h9.94a1.611,1.611,0,1,0,0-3.223H27.2c-7.906,0-14.311,6.012-14.311,13.425a2.774,2.774,0,0,0,2.86,2.689H40.284a1.611,1.611,0,1,0,0-3.223ZM16.4,22.992a1.611,1.611,0,1,0,1.381-2.911,7.637,7.637,0,0,0-3.275-.745H7.948A8.155,8.155,0,0,0,0,27.665V29a1.611,1.611,0,1,0,3.223,0V27.665a4.93,4.93,0,0,1,4.725-5.106H14.5A4.517,4.517,0,0,1,16.4,22.992Zm-3.5-6.878A8.057,8.057,0,1,0,4.834,8.057,8.057,8.057,0,0,0,12.891,16.114Zm0-12.891A4.834,4.834,0,1,1,8.057,8.057,4.839,4.839,0,0,1,12.891,3.223Zm19.326,29A10.474,10.474,0,1,0,21.834,21.753,10.4,10.4,0,0,0,32.217,32.227Zm0-17.725a7.251,7.251,0,1,1-7.251,7.251A7.257,7.257,0,0,1,32.217,14.5Z" fill="#489ac2"/>
</svg>
