<svg xmlns="http://www.w3.org/2000/svg" width="20" height="17.778" viewBox="0 0 20 17.778">
  <path id="file-circle-question-regular" d="M2.191,16.111H9.878a6.2,6.2,0,0,0,1.569,1.642,2.65,2.65,0,0,1-.337.024H2.222A2.223,2.223,0,0,1,0,15.556V2.222A2.222,2.222,0,0,1,2.222,0H7.969A2.216,2.216,0,0,1,9.538.651L12.684,3.8a2.215,2.215,0,0,1,.649,1.569V6.9a6.051,6.051,0,0,0-1.667.76v-2.1H8.889A1.11,1.11,0,0,1,7.778,4.444V1.667H2.222a.555.555,0,0,0-.556.556V15.556a.556.556,0,0,0,.556.556Zm7.778-3.333a5.016,5.016,0,1,1,5.031,5A5.028,5.028,0,0,1,9.969,12.778ZM15,16.111a.833.833,0,1,0-.833-.833A.831.831,0,0,0,15,16.111Zm-2.222-4.722a.556.556,0,0,0,1.111,0v-.222a.333.333,0,0,1,.333-.333h1.406a.482.482,0,0,1,.483.483.494.494,0,0,1-.257.431l-1.111.583a.554.554,0,0,0-.3.49v.514a.556.556,0,0,0,1.111,0v-.177l.816-.427a1.64,1.64,0,0,0,.851-1.413,1.6,1.6,0,0,0-1.594-1.594H14.222a1.443,1.443,0,0,0-1.444,1.444Z" fill="#88bd2f"/>
</svg>
