<svg xmlns="http://www.w3.org/2000/svg" width="18.755" height="12.504" viewBox="0 0 18.755 12.504">
  <path id="video-regular" d="M18.156,65.247a1.3,1.3,0,0,0-1.246-.088L13.546,66.7v-.619A2.084,2.084,0,0,0,11.462,64H2.084A2.084,2.084,0,0,0,0,66.084V74.42A2.084,2.084,0,0,0,2.084,76.5h9.378a2.084,2.084,0,0,0,2.084-2.084V73.8l3.364,1.542a1.3,1.3,0,0,0,1.846-1.213V66.344A1.3,1.3,0,0,0,18.156,65.247ZM11.983,74.42a.522.522,0,0,1-.521.521H2.084a.522.522,0,0,1-.521-.521V66.084a.522.522,0,0,1,.521-.521h9.378a.522.522,0,0,1,.521.521Zm5.21-.668-3.647-1.67v-3.66l3.647-1.671Z" transform="translate(0 -64)" fill="#88bd2f"/>
</svg>
