<svg xmlns="http://www.w3.org/2000/svg" width="27.749" height="6.381" viewBox="0 0 27.749 6.381">
  <g id="zoom_2_" data-name="zoom (2)" transform="translate(0 -9.303)">
    <path id="Path_78454" data-name="Path 78454" d="M10.465,10.238A3.093,3.093,0,0,0,8.254,9.3h0a3.086,3.086,0,0,0-2.21.935,3.236,3.236,0,0,0,0,4.512,3.087,3.087,0,0,0,4.425,0A3.237,3.237,0,0,0,10.465,10.238Zm-.885,3.609a1.851,1.851,0,0,1-2.655,0,1.94,1.94,0,0,1,0-2.707,1.851,1.851,0,0,1,2.655,0A1.94,1.94,0,0,1,9.579,13.847Z" transform="translate(0.794)" fill="#88bd2f" fill-rule="evenodd"/>
    <path id="Path_78455" data-name="Path 78455" d="M16.128,10.238a3.086,3.086,0,0,0-4.425,0,3.236,3.236,0,0,0,0,4.512,3.087,3.087,0,0,0,4.425,0A3.236,3.236,0,0,0,16.128,10.238Zm-.885,3.609a1.851,1.851,0,0,1-2.655,0,1.94,1.94,0,0,1,0-2.707,1.851,1.851,0,0,1,2.655,0A1.94,1.94,0,0,1,15.242,13.847Z" transform="translate(1.672)" fill="#88bd2f" fill-rule="evenodd"/>
    <path id="Path_78456" data-name="Path 78456" d="M1.252,15.668l.313.015H6.258l-.016-.318a.976.976,0,0,0-.924-.942l-.313-.015H2.191L5.945,10.58l-.016-.318a.955.955,0,0,0-.922-.942L4.693,9.3H0l.015.318a.981.981,0,0,0,.922.942l.313.015H4.067L.313,14.408l.015.318A.966.966,0,0,0,1.252,15.668Z" transform="translate(0 0)" fill="#88bd2f" fill-rule="evenodd"/>
    <path id="Path_78457" data-name="Path 78457" d="M20.035,11.216a1.413,1.413,0,0,1,.153.64l.015.319v2.234l.015.318a.972.972,0,0,0,.924.942l.312.015v-3.51l.015-.319a1.42,1.42,0,0,1,.154-.642,1.239,1.239,0,0,1,2.165,0,1.426,1.426,0,0,1,.152.639l.015.318v2.234l.015.318a.967.967,0,0,0,.924.942l.316.018V11.856a2.528,2.528,0,0,0-2.5-2.552,2.476,2.476,0,0,0-1.877.864,2.468,2.468,0,0,0-3.279-.426,1.712,1.712,0,0,0-1.1-.438v6.38l.313-.015a.955.955,0,0,0,.924-.941l.015-.319V12.174l.015-.319a1.418,1.418,0,0,1,.153-.641,1.239,1.239,0,0,1,2.165,0Z" transform="translate(2.539 0)" fill="#88bd2f" fill-rule="evenodd"/>
  </g>
</svg>
