<svg xmlns="http://www.w3.org/2000/svg" viewBox="0 0 383.86 383.86"><defs><style>.cls-1{isolation:isolate;}.cls-2{fill:#5700c8;}.cls-3{fill:#fefefe;}.cls-4{fill:#a44ffe;}.cls-5{fill:#7581fe;}.cls-6{fill:#a153fe;}.cls-7{fill:#aa49fe;}.cls-8{fill:#7c7afe;}.cls-9{fill:#797dfe;}.cls-10{fill:#9362fe;}.cls-11{fill:#777efe;}.cls-12{fill:#9b59fe;}.cls-13{fill:#8a6bfe;}.cls-14{fill:#8d68fe;}.cls-15{fill:#ae44fe;}.cls-16{fill:#985cfe;}.cls-17{fill:#7e77fe;}.cls-18{fill:#965efe;}.cls-19{fill:#8372fe;}.cls-20{fill:#b141fe;}.cls-21{fill:#9c58fe;}.cls-22{fill:#8274fe;}.cls-23{fill:#a054fe;}.cls-24{fill:#886dfe;}.cls-25{fill:#7086fe;}.cls-26{fill:#698efe;}.cls-27{fill:#b63dfe;}.cls-28{fill:#8f66fe;}.cls-29{fill:#7384fe;}.cls-30{fill:#866ffe;}.cls-31{fill:#a74cfe;}.cls-32{fill:#6691fe;}.cls-33{fill:#6f88fe;}.cls-34{fill:#8471fe;}.cls-35{fill:#9d56fe;}.cls-36{fill:#8f65fe;}.cls-37{fill:#6d89fe;}.cls-38{fill:#7284fe;}.cls-39{fill:#a84bfe;}.cls-40{fill:#9064fe;}.cls-41{fill:#e40bfe;}.cls-42{fill:#6b8cfe;}.cls-43{fill:#e807fe;}.cls-44{fill:#6c8bfe;}.cls-45{fill:#ba38fe;}.cls-46{fill:#6295fe;}.cls-47{fill:#eb05fe;}.cls-48{fill:#995bfe;}.cls-49{fill:#e00ffe;}.cls-50{fill:#a84cfe;}.cls-51{fill:#ed02fe;}.cls-52{fill:#5f98fe;}.cls-53{fill:#bc35fe;}.cls-54{fill:#8c68fe;}.cls-55{fill:#bb37fe;}.cls-56{fill:#c62cfe;}.cls-57{fill:#bf33fe;}.cls-58{fill:#c42efe;}.cls-59{fill:#b83bfe;}.cls-60{fill:#cf22fe;}.cls-61{fill:#d21efe;}.cls-62{fill:#d61bfe;}.cls-63{fill:#cc25fe;}.cls-64{fill:#c829fe;}.cls-65{fill:#da17fe;}.cls-66{fill:#c230fe;}.cls-67{fill:#c131fe;}.cls-68{fill:#dc14fe;}.cls-69{fill:#b43efe;}.cls-70{fill:#c929fe;}.cls-71{fill:#d61afe;}.cls-72{fill:#d31efe;}.cls-73{fill:#4badfe;}.cls-74{fill:#48b0fe;}.cls-75{fill:#4eaafe;}.cls-76{fill:#5c9bfe;}.cls-77{fill:#8174fe;}.cls-78{fill:#7f77fe;}.cls-79{fill:#86bc2f;mix-blend-mode:hue;}</style></defs><g class="cls-1"><g id="Layer_2" data-name="Layer 2"><g id="Layer_1-2" data-name="Layer 1"><path class="cls-2" d="M383.86,148.45v6.74c-3.69,9.39-6.05,19.18-8.95,28.8-9.54,31.62-18.94,63.29-28.41,94.93-2.8,9.34-8.1,13.33-17.81,13.33q-80.78,0-161.54,0a14,14,0,0,1-4.44-.51c-1-.34-2.08-1.95-3.2-.22a4,4,0,0,0,0,4.58c1.24,1.95,3.22,2.11,5.29,2.11q15.75,0,31.49,0,55.09,0,110.19,0a24.76,24.76,0,0,1,7.07.53,14.64,14.64,0,0,1,10.5,16.09,14.37,14.37,0,0,1-14.26,12.81c-20.12.09-40.23,0-60.35,0q-42.54,0-85.08,0c-19,0-32.88-12.19-35-31a31,31,0,0,1,6.27-22.54c1.55-2.08,1.59-3.55.91-6.11-1.73-6.49-2.61-13.2-3.76-19.84q-11-64-22.06-128c-1.21-7-3.13-8.51-10.29-8.51-7.49,0-15,.05-22.49,0a5,5,0,0,0-4.21,1.74,13.16,13.16,0,0,1-10.32,4.47c-14.62,0-29.23.11-43.85,0-8.78-.09-14.74-4.61-18.23-12.59-.38-.86-.22-2-1.32-2.54v-12c1.16-.77,1-2.17,1.57-3.25,3.51-7.19,9.07-11.71,17.22-11.83,15-.23,30-.08,45-.07a12.39,12.39,0,0,1,9.67,4.16c1.51,1.72,3.13,2,5.23,2,9.36,0,18.79-.59,28.08.28,17.87,1.68,30.62,14.75,33.46,33.08.94,6,2.1,12,3,18.08.28,1.87,1,2.67,2.89,2.46a22.87,22.87,0,0,1,2.62,0H364.13C375.68,135.64,379.46,138.1,383.86,148.45Z"/><path class="cls-2" d="M298.33,62.49C297.39,91,275.5,115.27,247,119.36c-32.06,4.6-62.28-17-67.75-48.46a60.06,60.06,0,0,1,46.8-69.6c1.36-.29,3,0,4.09-1.3h1.5a5.65,5.65,0,0,0,4.49,0h1.5a7.64,7.64,0,0,0,5.25,0h3c1.48,1.41,3.48,1,5.21,1.38A60.16,60.16,0,0,1,298.33,62.49Z"/><path class="cls-2" d="M279.07,383.34a3.86,3.86,0,0,0-.92.52H269.9c-.37-1.06-1.45-.86-2.2-1.14-11.2-4.12-17.69-15-15.44-25.92,2.46-12,12.47-19.55,24.73-18.68,10.63.76,19.91,10.11,20.64,20.81C298.45,371,291.06,380.69,279.07,383.34Z"/><path class="cls-2" d="M190.92,383.23a6,6,0,0,0-1.24.63h-8.25c-.67-1.13-2-.94-3-1.3A23,23,0,0,1,163.6,356c2.42-11.12,12.55-18.54,24.33-17.84,11.07.66,20.08,10,21,21.67C209.77,370.54,202,380.66,190.92,383.23Z"/><path class="cls-3" d="M235.05,315.69c-24.11,0-48.23.08-72.34-.05-8.59-.05-15.07-4.22-19-11.8s-3.34-15,1.17-22c.65-1,1-3.66,3.33-2.05,1.69,1.18,3.56,2.05,1.47,5.09-6.8,9.92-1,23,10.84,25a32.55,32.55,0,0,0,5.59.36q69.9,0,139.8,0c1.25,0,2.5,0,3.74.06a2.7,2.7,0,0,1,0,5.38c-1,.05-2,0-3,0Z"/><path class="cls-4" d="M139.42,214.46a23.47,23.47,0,0,1-1.41-7.55,5.62,5.62,0,0,1,2.73-2.43c31.08-17.91,62.07-36,93.22-53.75,1.73-1,3.38-2.12,5.18-3h14.25c.22,2.3-1.71,2.85-3.12,3.69-16.86,10-33.91,19.67-50.88,29.48-18.58,10.74-37.15,21.53-55.81,32.14C142.29,213.81,141.06,214.75,139.42,214.46Z"/><path class="cls-5" d="M356,203.18c-.64,2.77-.65,5.7-2.14,8.25-36,20.52-71.73,41.49-107.71,62-3.67,2.09-7.18,4.44-10.84,6.55H225c-2-.49-1.19-1.56-.43-2.45a12.12,12.12,0,0,1,3.37-2.32Q277.42,246.59,327,218q12.3-7.11,24.62-14.18C353,203.06,354.33,201.85,356,203.18Z"/><path class="cls-6" d="M139.42,214.46q38.18-22.1,76.36-44.19,17.25-10,34.55-19.89a6.68,6.68,0,0,0,3.06-2.62H263.9c1.05,2.51-1.22,3-2.54,3.74-9.23,5.45-18.54,10.78-27.83,16.13q-42.45,24.47-84.85,49c-2.87,1.67-6.13,2.88-7.78,6.13A26.78,26.78,0,0,1,139.42,214.46Z"/><path class="cls-7" d="M209.17,147.77h15c.91,2.52-1.38,3-2.67,3.69-13,7.42-25.83,15-38.79,22.42-13.93,8-27.76,16.14-41.76,24-1.33.75-2.64,2.14-4.39.81l-1.47-8.22c10.08-4.94,19.53-11,29.26-16.52,14.6-8.33,29.2-16.67,43.63-25.29A7,7,0,0,0,209.17,147.77Z"/><path class="cls-8" d="M362.15,183.74c-1.24,2.34-.44,5.28-2.22,7.46-14.05,8-28.05,16.18-42.08,24.26q-28.34,16.32-56.63,32.72c-2.07,1.2-4.15,3-6.91,1.77-.77-1-.06-1.67.58-2.22,7.17-6.19,14.11-12.65,21.5-18.57a3.29,3.29,0,0,1,1-.45c5.88-1.28,10.52-5.06,15.56-8q32-18.31,63.85-36.79C358.33,183.1,360.27,180.66,362.15,183.74Z"/><path class="cls-9" d="M254.21,249.67c3,.23,5.22-1.48,7.56-2.83q23.12-13.31,46.17-26.7c15.06-8.73,30.08-17.51,45.16-26.2,2.12-1.23,4.16-2.82,6.83-2.74a23.27,23.27,0,0,1-2.26,7.56c-7.56,3.05-14.25,7.71-21.27,11.74q-47.08,27-94,54.21c-2.26,1.31-4.47,3.38-7.54,2.46-.91-1.5.29-2.38,1.14-3.09,5.48-4.58,10.71-9.46,16.26-14C252.77,249.66,253.41,249.21,254.21,249.67Z"/><path class="cls-10" d="M146.88,257.3a21.07,21.07,0,0,1-1.46-8.31c-1-2.32.43-3.44,2.17-4.43,14.82-8.42,29.53-17,44.31-25.55,7.66-4.41,15.29-8.87,23-13.2,2.3-1.29,4.49-3.35,7.56-2.24.88.87.3,1.7-.27,2.28-6.7,6.83-13.17,13.89-20.4,20.18-3.73.08-6.44,2.52-9.41,4.24q-19.86,11.47-39.74,22.95A46.65,46.65,0,0,0,146.88,257.3Z"/><path class="cls-11" d="M234.57,266.87c5.18-.57,9.08-3.95,13.35-6.36,17.42-9.84,34.69-20,52-30,16.78-9.73,33.49-19.56,50.36-29.11,2.18-1.23,4.12-4.11,7.39-2.65a11.31,11.31,0,0,1-1.63,4.42c-3.68.3-6.29,2.85-9.26,4.54-15.24,8.66-30.38,17.5-45.56,26.27l-41.35,23.84Q244,267,228.23,276.12c-1.57.91-3.46,1.46-4.06,3.51-4.43.83-8.9.16-13.35.38-1.5-1.68-1.59-2.25.4-3.4,3.44-2,6.63-4.47,10.44-5.82,3.79.82,7.1.09,9.88-2.82A3.08,3.08,0,0,1,234.57,266.87Z"/><path class="cls-12" d="M143.07,235.46l-1.26-5.29c9.76-5.54,19.47-11.17,29.19-16.78q43.29-25,86.61-49.94c1.88-1.08,4-3.62,6.61-1.06a1.69,1.69,0,0,1-.23,1.43c-3.72,4.18-7.27,8.54-12.08,11.57-5.85,1.07-10.33,4.91-15.26,7.75q-44.42,25.55-88.79,51.21C146.43,235.18,145,236.56,143.07,235.46Z"/><path class="cls-13" d="M355.35,147.77h12c.25,2.22-1.49,3-2.94,3.85-26.4,15.14-52.69,30.45-79.06,45.63-1.27.73-2.69,1.24-3.72,2.47,1.36.58,2.84.05,4.07.75s1.1,1.25,0,1.86c-3.93.79-7.88.48-11.83.22a22.61,22.61,0,0,0-4.78-.78c-.84-.06-1.87-.14-2.11-1.17s.49-1.64,1.16-2.2c2.61-2.16,5.72-3.54,8.61-5.23,25.18-14.69,50.59-29,75.67-43.86C353.34,148.74,354.4,148.37,355.35,147.77Z"/><path class="cls-14" d="M355.35,147.77c-3.8,4.32-9.18,6.27-14,9.08-20.35,12-40.82,23.72-61.25,35.54-3.66,2.12-7.34,4.19-11,6.3-.74.42-1.58.8-1.64,2l5.4.65c-.62,1.44-2,1.34-3.18,1.4a65.81,65.81,0,0,1-7.82,0c-3.84-.24-4.62-1.68-2.89-5.06a10.8,10.8,0,0,1,1.66-2.47C280.28,184.57,299.35,173,318.74,162q12.35-7,24.63-14.18Z"/><path class="cls-15" d="M209.17,147.77c-1.87,4-6.1,4.82-9.38,6.75-20,11.74-40.18,23.23-60.27,34.85-1.42.81-2.7,1.78-4.44,1.09-.48-2.74-1-5.49-1.45-8.23q30.17-16.77,59.8-34.47Z"/><path class="cls-16" d="M143.07,235.46c6.64-2.32,12.25-6.58,18.31-10,15.73-8.84,31.26-18,46.87-27.09,12.27-7.12,24.51-14.29,36.81-21.36,2.12-1.22,4.25-2.75,7-2.31a1.22,1.22,0,0,1-.09,1.08c-4.12,4.63-8.07,9.44-13.36,12.86-5.91,1.56-10.75,5.25-15.91,8.23q-37.14,21.42-74.29,42.84c-1.32.76-2.67,2.07-4.44.93C142.82,239.07,143.31,237.2,143.07,235.46Z"/><path class="cls-17" d="M362.15,183.74c-1.51-1.71-2.81-.2-3.94.45-15,8.63-29.87,17.35-44.81,26-10.43,6-20.91,12-31.36,18a7.45,7.45,0,0,1-4.61,1.2c-.26-2.39,2-3,3.23-4.08,6.08-5.43,12.08-11,18.45-16.08,7.94-3.41,15.07-8.29,22.54-12.53,13.23-7.52,26.36-15.22,39.56-22.78,1.24-.71,2.46-1.92,4.07-.73C364.09,176.68,363.9,180.44,362.15,183.74Z"/><path class="cls-18" d="M143.94,240.66c7.31-2.92,13.77-7.41,20.58-11.27,15.26-8.64,30.4-17.52,45.59-26.3,7.33-4.24,14.65-8.49,22-12.69,2-1.12,3.77-2.82,6.35-2.1a1.47,1.47,0,0,1-.26,1.41,181.3,181.3,0,0,1-14,14,1.45,1.45,0,0,1-1.41.25c-5.15-.13-8.73,3.44-12.75,5.7-17.32,9.76-34.47,19.84-51.68,29.79-3.66,2.12-7.31,4.26-11,6.24a3.18,3.18,0,0,0-1.9,3.3A25.73,25.73,0,0,1,143.94,240.66Z"/><path class="cls-19" d="M209.93,279.63h26.24c1.77-1.42,3.86-1.05,5.89-1.05,1.57.07,3.13-.13,4.71,0,2.69.06,5.39-.11,8.08,0,2.25.11,4.5-.1,6.75,0,2.47.14,4.94-.13,7.4.05,1.57,0,3.14-.12,4.71,0,2,.1,4.09-.14,6.13,0,4,0,7.9-.15,11.85,0,5.17,0,10.34-.19,15.51,0,4.37,0,8.75-.17,13.12,0,1.07.25,2.42,0,2.72,1.59-1.37.06-2.74.17-4.11.17l-147.65,0c-2.37,0-4.82.29-6.35-2.15-1-2.83,1.51-3.42,3-4.29q13.17-7.5,26.26-15.18c14-8.2,28.24-16,42.05-24.52,2.29-.33,3.22.85,2.21,2.75-1.71,3.23-3.33,6.61-6.47,8.81-6.07,2.13-11.19,6-16.71,9.12-13.13,7.43-26.14,15.09-39.24,22.58a2.08,2.08,0,0,0-1,1.15c3.05.22,6,.07,8.86,0,3.74-.14,7.48-.14,11.23,0,3.54-.15,7.08-.13,10.63-.08A5.81,5.81,0,0,1,209.93,279.63Z"/><path class="cls-20" d="M193.43,147.76c-.51,2.9-3.36,3.21-5.23,4.31-16.42,9.65-32.94,19.11-49.48,28.53-1.51.86-3,2.49-5.09,1.63q-.76-4.5-1.54-9c10.06-4.46,19.2-10.57,28.74-16,5.42-3.07,10.95-6,16.1-9.49Z"/><path class="cls-21" d="M263.94,162.8c-1.48-1.8-2.8-.25-3.92.39-10.58,6-21.11,12.11-31.66,18.19l-41.63,24c-12.16,7-24.3,14.06-36.48,21-2.67,1.53-5.21,3.43-8.44,3.72l-.18-3c11.24-6.94,22.79-13.33,34.23-19.94q30.93-17.87,61.89-35.71c13.73-7.87,27.42-15.84,41.13-23.77h9c.15,2.51-1.92,3.19-3.53,4.19-3.86,2.39-8.16,4.07-11.44,7.36C269.52,159.45,267,161.91,263.94,162.8Z"/><path class="cls-22" d="M365.28,173.22c-6.33,2.35-11.8,6.29-17.59,9.6-15.22,8.7-30.35,17.54-45.51,26.33a5,5,0,0,1-3.22.72c-1.11-1.43-.8-3.09-.77-4.7.19-2.45,2-3.66,3.82-4.72C322,189,341.94,177.39,362,166c1.8-1,3.57-3,6.11-1.77C366.69,167.06,366.88,170.42,365.28,173.22Z"/><path class="cls-23" d="M140.9,222.78c-.42-2.47,1.23-3.56,3-4.59q37.85-21.74,75.69-43.5c14-8.06,28-16.22,42-24.31,1.09-.63,2.32-1.06,2.33-2.61h6.75c1.05,2.51-1.22,3-2.54,3.74-9.25,5.43-18.54,10.78-27.83,16.14q-39.69,22.9-79.35,45.83c-5.5,3.19-11,6.31-16.55,9.48-1,.6-2.14,1.44-3.43.46A1.39,1.39,0,0,1,140.9,222.78Z"/><path class="cls-24" d="M286.4,201.31c-2.24-1-4.7.15-7.36-.85,3-3.15,6.83-4.53,10.21-6.51,17.35-10.18,34.78-20.21,52.21-30.27q11-6.33,22-12.51a9.7,9.7,0,0,0,3.86-3.4c4.11.65,5,2.11,3.79,5.95-4.72,1.14-8.43,4.26-12.51,6.59-21.53,12.32-43,24.77-64.48,37.13-1,.6-2.27,1-2.95,2.16,1.31,1.1,3.71-.45,4.39,1.93a1.8,1.8,0,0,1-.92.82C291.82,202.64,288.87,203.88,286.4,201.31Z"/><path class="cls-25" d="M254.91,279.63h-8.24c-.13-2.75,2.26-3.38,4-4.38C262,268.54,273.5,262,285,255.37q30.3-17.51,60.62-35c1.82-1.05,3.57-3,6.08-1.44-1.26,2.37-.81,5.24-2.26,7.55a6.18,6.18,0,0,0-4.59,1.11q-42.94,25-86.08,49.72C257.44,278.05,256.21,278.89,254.91,279.63Z"/><path class="cls-3" d="M92.55,99.71c-4.12,0-8.24-.14-12.35.06-2.59.13-2.39-1.35-2.37-3s-.29-3.12,2.34-3.07c8.11.17,16.23-.14,24.33.17,11.66.45,21.08,9,23.46,21,1.18,6,2.13,12,3.09,18.06.16,1,1,2.87-1.22,2.63-1.64-.17-4.16,1.5-4.68-1.94-.85-5.66-2-11.29-2.91-16.94-1.79-10.56-9.25-16.93-19.95-17Z"/><path class="cls-26" d="M291.65,279.64h-12c-.13-2.74,2.26-3.37,3.94-4.37,12.94-7.7,26-15.15,39.08-22.65,5.61-3.22,11.15-6.57,16.81-9.71,1.46-.81,2.91-2.17,4.74-.71.18,3.27-.91,6.22-2.24,9.12-7.11,3.05-13.51,7.38-20.22,11.15C311.69,268.12,301.87,274.23,291.65,279.64Z"/><path class="cls-27" d="M176.93,147.77c-.38,2.82-3.14,3.07-4.89,4.11-11.42,6.81-23,13.41-34.54,20-1.58.89-3.15,2.75-5.41,1.39q-.75-4.51-1.52-9c8.32-5.51,17.26-10,25.76-15.18a9,9,0,0,0,1.86-1.24Z"/><path class="cls-28" d="M146.88,257.3c.15-1.89,1.54-2.66,3-3.5,15.26-8.84,30.46-17.77,45.77-26.51,1.76-1,3.49-3.07,6-1.83.18,2,1,4,.46,6.09-2.95,3.36-7.17,4.82-10.89,7-12.65,7.43-25.37,14.74-38.1,22-1.66,1-3.23,2.42-5.45,1.82C146.77,260.81,146.93,259,146.88,257.3Z"/><path class="cls-29" d="M242.16,279.63h-6c.57-3,3.54-3.35,5.52-4.5,23.34-13.59,46.8-27,70.19-40.49,12-6.9,23.85-13.95,35.82-20.83,1.9-1.09,3.78-2.52,6.2-2.38-1.17,1.34-.18,3.34-1.42,4.65-9.35,4.5-18.1,10.07-27.07,15.24-25.64,14.77-51.24,29.62-76.91,44.34C246.34,276.91,244.32,278.38,242.16,279.63Z"/><path class="cls-30" d="M236.16,234.66c-3,3.74-7.49,5.19-11.39,7.47-18.62,10.89-37.39,21.52-56.07,32.33-1.49.86-3.61,1.38-3.77,3.72l-4.48-3.82c-.25-2.3,1.67-2.87,3.1-3.7,16-9.23,31.95-18.53,48-27.71,5.08-2.91,10.14-5.84,15-9.07C229.8,233.66,233.1,232.71,236.16,234.66Z"/><path class="cls-31" d="M239.14,147.76c-2.41,3.44-6.39,4.65-9.77,6.61q-43.44,25.31-87,50.33c-1.4.81-2.88,1.48-4.33,2.21-.23-1-.47-2-.7-3a6.63,6.63,0,0,1,2.95-3.26c26.55-15.18,53-30.59,79.5-45.79,4-2.3,7.93-4.74,11.9-7.08Z"/><path class="cls-10" d="M315.63,147.77h12.75c.76,2.63-1.6,3-3,3.89-8.95,5.43-18.06,10.58-27.12,15.82q-11.81,6.83-23.64,13.62c-1.89,1.09-3.79,2.63-6.22,1.27.12-4.63,3.05-7.85,5.69-11.21,6.69-2.22,12.28-6.5,18.37-9.86C300.29,157,308.06,152.54,315.63,147.77Z"/><path class="cls-32" d="M291.65,279.64c3.53-4,8.65-5.63,13.05-8.29,11-6.66,22.22-13,33.42-19.35,1.05-.6,2.24-2.42,3.85-.69a46.39,46.39,0,0,1-3.07,10.38c-9.74,4.57-18.73,10.45-28,15.81a20.8,20.8,0,0,0-3.49,2.14Z"/><path class="cls-30" d="M295.39,200.93c-1.5,0-3,0-4.49,0-.7,0-1.67.21-1.86-.75s.67-1.2,1.31-1.57l24.54-14.16,41.66-24q6-3.45,11.95-6.88c.9-.51,1.84-.91,2.63.2l-1.47,4.47c-6.83,4.8-14.27,8.58-21.45,12.78-16.22,9.48-32.58,18.7-48.78,28.22C298.17,199.93,297,201,295.39,200.93Z"/><path class="cls-33" d="M254.91,279.63c1.93-3.42,5.69-4.35,8.74-6.13,19.09-11.2,38.29-22.21,57.46-33.29,8.08-4.67,16.12-9.39,24.25-14,1.14-.64,2.9-2.92,4,.22a4.73,4.73,0,0,1-.82,2.94c-28.87,16.91-57.9,33.56-86.92,50.21Z"/><path class="cls-34" d="M295.39,200.93c7-5.2,14.86-9,22.36-13.41,15.13-8.85,30.34-17.57,45.52-26.36,2-1.18,4-2.5,6.39-3l-1.59,6c-7.91,2.86-14.66,7.87-21.91,11.94-14.1,7.91-28.06,16.08-42,24.2-2,1.13-4.55,1.69-5.06,4.5-2.06-.14-3.09-1.44-3.68-3.25Z"/><path class="cls-13" d="M156.62,270.79a10.17,10.17,0,0,1-3.69-3.11c-1.1-2.5,1.14-3,2.47-3.79,9.24-5.46,18.55-10.81,27.85-16.17,7.88-4.55,15.82-9,23.58-13.8A24.59,24.59,0,0,1,216,234c2.08,2.26-.3,3-1.49,3.81-3.84,2.56-7.91,4.78-11.93,7.05-14.23,8-28.27,16.44-42.51,24.49A7.6,7.6,0,0,1,156.62,270.79Z"/><path class="cls-35" d="M141,223.42c6.67-2.79,12.65-6.85,18.9-10.39,15.46-8.76,30.79-17.74,46.17-26.65q25.17-14.56,50.31-29.17,6-3.47,12-6.83c1.09-.62,2.31-1.06,2.33-2.61h4.5c1,2.28-1,2.77-2.24,3.51-9,5.33-18.09,10.5-27.14,15.74-19,11-38,21.88-56.91,32.9-14.63,8.51-29.36,16.87-44,25.37-1.24.72-2.71,1.72-3.8-.34Z"/><path class="cls-24" d="M156.62,270.79c5.82-4.48,12.46-7.59,18.74-11.3,13-7.69,26.19-15.13,39.27-22.73a10.72,10.72,0,0,0,2-2.1,8.54,8.54,0,0,1,9,0c-.25,1.78-1.84,2.28-3.06,3q-20,11.6-40.06,23.09c-6.46,3.72-12.91,7.47-19.39,11.16a6.16,6.16,0,0,0-2.71,2.46A12.91,12.91,0,0,1,156.62,270.79Z"/><path class="cls-36" d="M343.37,147.77c-1.64,3.31-5.22,4-8,5.68-16.93,9.94-34,19.62-51,29.41-5.49,3.17-10.88,6.51-16.4,9.62-1.91,1.07-3.77,2.5-6.17,2.45-.36-3.13,1.26-5.34,3.42-7.3,6.92-2.06,12.6-6.5,18.75-10,17.37-9.86,34.62-19.91,51.93-29.86Z"/><path class="cls-37" d="M261.66,279.63c2.36-3.5,6.39-4.67,9.76-6.64,24.15-14.12,48.4-28.05,72.64-42,1.38-.8,2.78-1.74,4.52-1.56-.66,1.77-.95,3.7-2.12,5.28-13.28,7.92-26.79,15.46-40.13,23.28-12.37,7.26-24.95,14.15-37.18,21.65Z"/><path class="cls-38" d="M242.16,279.63c2.69-4.25,7.49-5.53,11.46-7.88,15.3-9.08,30.75-17.91,46.17-26.8,15.63-9,31.26-18,47-26.86,1.66-.93,3-3.72,5.69-2-.12,1,.07,2.08-.82,2.85-5.64.86-9.74,4.82-14.46,7.45-14.13,7.84-28.06,16.06-42.05,24.14q-22.45,13-44.88,26c-1.35.79-2.93,1.48-3.6,3.13Z"/><path class="cls-14" d="M206.2,234.57c-2.86,3.89-7.48,5.21-11.36,7.53-13,7.76-26.2,15.2-39.33,22.75-1.17.68-2.58,1.1-2.58,2.83l-3.73-3.17c-1-2.16,1-2.47,2.1-3.15,10-6,20.17-11.78,30.31-17.58,6.9-3.95,13.66-8.13,20.72-11.8C203.94,232.37,205.69,232.55,206.2,234.57Z"/><path class="cls-18" d="M315.63,147.77c-.17,2.44-2.48,2.61-4,3.48-11,6.45-22.13,12.79-33.22,19.14-1.29.74-2.6,1.5-4.2,1.25-.86-2.28,1-3.75,1.66-5.57.52-3.53,2.75-5.56,5.78-7.15,6.68-3.5,13-7.68,19.68-11.15Z"/><path class="cls-39" d="M136.55,198.68c4.7-1.09,8.43-4.14,12.49-6.44,17.41-9.85,34.67-20,52-30,6.78-3.91,13.61-7.75,20.35-11.73,1.1-.64,2.59-1.12,2.78-2.77h5.25c1,2.29-1.27,2.43-2.28,3-9.81,5.89-19.79,11.5-29.7,17.24q-28.27,16.36-56.61,32.62c-1.07.6-2,2.06-3.63,1A4.53,4.53,0,0,1,136.55,198.68Z"/><path class="cls-40" d="M335.86,147.77c-3.92,4.39-9.42,6.38-14.3,9.27q-23.12,13.67-46.49,26.89c-3.05,1.72-5.73,4.62-9.74,4.23a6.11,6.11,0,0,1,3.2-6c4.35.18,7.34-2.91,10.7-4.81,15.23-8.6,30.28-17.5,45.38-26.32,1.45-.84,3.26-1.34,3.77-3.29Z"/><path class="cls-41" d="M45.74,105.71H28.49c-.3-2.09,1.38-2.71,2.7-3.48,8.35-4.83,16.65-9.75,25-14.51,2.06,0,4.11-.1,6.16-.09,1.18,0,2.53-.2,2.89,1.47,1.14,3.39-.14,5.38-3.26,7.08A182.61,182.61,0,0,0,45.74,105.71Z"/><path class="cls-35" d="M141.06,225c1.25.94,2.32.3,3.43-.34q27-15.54,53.94-31.08,32.22-18.65,64.37-37.39c3.34-1.93,6.71-3.79,10.05-5.72,1.06-.61,2.31-1.1,2.3-2.65h3.73c-3.8,4.33-9.17,6.31-14,9.09-28.06,16.31-56.22,32.42-84.33,48.64-11.84,6.83-23.62,13.77-35.43,20.66a6,6,0,0,1-3.53,1A2.32,2.32,0,0,1,141.06,225Z"/><path class="cls-42" d="M344.22,242.19c-4.77.62-8.26,3.87-12.2,6.11-15.79,8.95-31.46,18.13-47.15,27.26-1.92,1.11-4.05,2-5.22,4.07h-6c-.3-2.22,1.43-3.05,2.88-3.87,21.42-12.25,42.71-24.71,64.11-37a9.51,9.51,0,0,1,3.43-1.44c1.33-.17,2.38.11,1.56,1.84C344.83,240,345.32,241.48,344.22,242.19Z"/><path class="cls-43" d="M56.23,87.72c-4.16,4.61-10.15,6.41-15.11,9.81-4.13,2.84-9.23,4.2-12.63,8.18-3.24,0-6.48.07-9.72.05a4.31,4.31,0,0,1-3.63-1.58c3.27-3.11,7.53-4.64,11.27-7,5.32-3.35,10.88-6.31,16.33-9.46Z"/><path class="cls-44" d="M345.63,239.17c-.48-2.49-1.9-.94-2.73-.48-6,3.33-11.9,6.76-17.83,10.17-13.91,8-27.86,16-41.68,24.12-3.37,2-7.49,3-9.74,6.65h-4.5c1.11-3.46,4.67-3.84,7.18-5.31q30.6-18.06,61.48-35.63c2.72-1.55,5.13-4.08,8.65-4C346.36,236.22,346.81,237.85,345.63,239.17Z"/><path class="cls-45" d="M158.19,147.77c-.14,2.28-2.24,2.44-3.64,3.27-7,4.18-14.09,8.28-21.14,12.41a4.76,4.76,0,0,1-2.84.74c-.49-2.75-1-5.5-1.46-8.25,4-3.4,9-5.23,13.34-8.17Z"/><path class="cls-46" d="M307.39,279.64c1.94-3.52,5.79-4.42,8.89-6.3,6.36-3.87,12.87-7.51,19.37-11.14.91-.51,1.93-1.94,3.25-.51-1.23,3.2-1.16,6.79-2.95,9.83-5.65,1.54-10.17,5.18-15.07,8.12Z"/><path class="cls-47" d="M42.74,87.72c-2,3.1-5.49,4.16-8.47,5.83-6.37,3.55-12.3,7.9-19.13,10.63a6.42,6.42,0,0,1-3-5.94c6-3.39,12.29-6.37,17.86-10.52Z"/><path class="cls-48" d="M301.37,147.77c-3,3.49-7.37,4.91-11.08,7.32a71,71,0,0,1-8.09,4.6c-3,1.41-5,3.39-5.44,6.75-1.25-2.55-2-5.35-3.86-7.6,2.18-4.11,6.83-4.78,10.23-7.19,1.69-1.2,3.66-2,4.75-3.89Z"/><path class="cls-49" d="M45.74,105.71c0-1.32.89-1.88,1.92-2.47,4.73-2.69,9.3-5.7,14.18-8.06,2.88-1.39,3.77-3.22,3.44-6.08,1.34,4.75.52,9.59.45,14.38,0,2-1.78,2.37-3.57,2.34C56.68,105.75,51.21,105.74,45.74,105.71Z"/><path class="cls-50" d="M137.19,201.68c6.13-2.52,11.58-6.26,17.29-9.52,15.9-9.07,31.72-18.26,47.58-27.4,8.3-4.79,16.62-9.55,24.88-14.42,1-.58,2.37-1,2.47-2.58h2.25c-2.82,4.08-7.52,5.5-11.49,7.84-17,10.06-34.22,19.88-51.36,29.77-8.94,5.16-17.88,10.34-26.89,15.39a47.38,47.38,0,0,0-4.62,3.13C137.27,203.16,137.23,202.42,137.19,201.68Z"/><path class="cls-51" d="M30,87.72c0,1.54-1.16,2.06-2.23,2.69-4.29,2.49-8.57,5-12.86,7.48-.85.49-1.75,1-2.77.35-.43-8,2-10.64,10-10.63C24.76,87.61,27.38,87.68,30,87.72Z"/><path class="cls-52" d="M320.88,279.64c3.59-4.6,9-6.39,13.92-8.85.21-.1.76.47,1.15.73-2.4,9.23-2.4,9.23-12.91,8.66C322.44,279.51,321.63,279.71,320.88,279.64Z"/><path class="cls-53" d="M142.45,147.77c-3.54,4.2-8.56,6-13.34,8.17-1.77-8.27-1.77-8.28,6.66-8.27C138,147.67,140.22,147.73,142.45,147.77Z"/><path class="cls-54" d="M202.47,232.4l-41.93,24.22c-3.12,1.8-6.45,3.22-9.32,5.45-.89.69-2,1.09-2,2.45a2.07,2.07,0,0,1-1.51-2.11q19.74-11.31,39.5-22.59c4.86-2.78,9.76-5.48,14.65-8.21C202.38,231.61,202.65,231.82,202.47,232.4Z"/><path class="cls-55" d="M241.33,96c-6.34-1.19-8.91,1-8.94,7.55,0,4.38,0,4.44-4.26,3.38s-8.65-2.2-12.36-4.87c.59-2.2,2.54-2.93,4.25-3.92,18.84-11,37.85-21.71,56.62-32.83,1.73.82,3.57.67,5.4.69,3.86,0,4.19.47,3.25,4.27-.14.59-.36,1.16-.55,1.75-1.21,2.1-3.56,2.61-5.45,3.68C268.07,82.05,257,88.69,245.73,95,244.38,95.71,243.12,97,241.33,96Z"/><path class="cls-56" d="M201.62,90.74c-1.12-1.43-2.58-2.63-3.12-4.46,4.92-4,10.7-6.63,16.11-9.85,6.6-3.92,13.23-7.8,19.92-11.58,4.85,1,8.06-1.47,11.25-4.76,3.5-3.61,6.55-7.76,11.1-10.26a10.74,10.74,0,0,0,4.86-1.67c6.3-3.45,12.3-7.41,18.68-10.71a14.39,14.39,0,0,1,2.91,6.79c-4.39,3.75-9.65,6.13-14.6,9Q236.85,71.61,205,90.1C204,90.71,203,91.66,201.62,90.74Z"/><path class="cls-57" d="M276.64,65.31c-1,3.4-4.51,3.69-6.91,5.1C252.94,80.32,236,89.93,219.08,99.67a36.53,36.53,0,0,0-3.31,2.39,14.18,14.18,0,0,1-6-3.78c.76-2.26,2.88-3,4.67-4q26.11-15,52.13-30.08c2.18-1.26,4.21-3.21,7.11-2.7C274.79,62.66,275.13,64.43,276.64,65.31Z"/><path class="cls-58" d="M201.62,90.74c7.85-4.47,15.71-8.92,23.54-13.42,14-8,27.91-16.15,41.92-24.14,5.37-3.06,10.38-6.78,16.25-8.94.29.95.59,1.89.88,2.84.82,2.57-1.29,3.24-2.81,4.13C270.73,57.46,260,63.55,249.28,69.76,235.89,77.55,222.44,85.22,209,93c-1.39.8-2.76,1.87-4.49.78Z"/><path class="cls-59" d="M241.33,96c6.74-2.82,12.75-7,19.12-10.51,8.12-4.46,15.83-9.65,24.3-13.47a35.68,35.68,0,0,1-6,13.45c-10,5.36-19.65,11.3-29.53,16.84-1.43.8-2.8,2.29-4.75,1.15A8.78,8.78,0,0,0,241.33,96Z"/><path class="cls-60" d="M266.87,21.87a21.73,21.73,0,0,1,8.39,8c-2.1,3.76-5.83,4.91-9.58,6-7.4-3.09-7.4-3.09-13.32,2.82q-5.54,5.54-11.08,11.07c-2,2-3.87,2.14-5.71,0s-4.5-3.25-4.88-6.32c1.6-2.42,4.29-3.38,6.62-4.72,9.29-5.36,18.59-10.7,27.83-16.15A7.81,7.81,0,0,1,266.87,21.87Z"/><path class="cls-61" d="M266.87,21.87c-2.61,3.18-6.5,4.42-9.87,6.42-8.74,5.15-17.54,10.2-26.32,15.28-3-1.16-5.31-2.88-5.82-6.3,6.79-5.12,14.56-8.62,21.75-13.1,4-2.5,8.32-4.51,12-7.5C261.9,17.59,264.21,20,266.87,21.87Z"/><path class="cls-62" d="M258.65,16.67c-.22,2.29-2.27,2.94-3.78,3.83-9.65,5.7-19.38,11.26-29.09,16.85a3.84,3.84,0,0,1-1.1.23c-2.94-1.19-5.37-2.84-5.77-6.34,4.37-2.8,9.07-5.06,13.4-7.92a1.75,1.75,0,0,1,1.77-.16c6.7,2.92,10.36.54,10.23-7-.06-3.21,1.13-4,3.89-3.18C251.75,14,255.4,14.78,258.65,16.67Z"/><path class="cls-63" d="M195,80.22a19.87,19.87,0,0,1-2.51-6.65c1.91-2.9,5.29-3.64,8-5.26,7.84-4.64,15.79-9.1,23.58-13.83,3.24.55,4.43,3.17,5.75,5.68.08,2-1.56,2.73-2.91,3.49-9.34,5.23-18.46,10.82-27.83,16C197.81,80.32,196.56,81.41,195,80.22Z"/><path class="cls-64" d="M195,80.22c4-.8,7.09-3.46,10.53-5.34,7.21-3.94,14.3-8.08,21.38-12.23,1-.58,2.36-1,2.51-2.55,3.21.26,4.58,2.37,5.25,5.19-4,3.64-9,5.57-13.48,8.38-6.72,4.21-13.69,8-20.57,11.92a11.09,11.09,0,0,1-2.11.69C196.71,84.62,195.94,82.37,195,80.22Z"/><path class="cls-65" d="M234.08,23.16c-5,3.13-9.73,6.65-15.43,8.46a1.58,1.58,0,0,1-1.05.28c-6.23-.65-7-.14-8.71,6-3.76,3.54-8.44,5.58-12.95,7.86-1.25.64-3.2,1.2-2.56-1.65a25.08,25.08,0,0,1,5.23-10.52c2,.09,3.58-1,5.15-2,7.34-4.44,14.84-8.61,22.29-12.86,2.55-1.46,4.82-3,5.62-6,1.37,1.19.69,2.77.67,4.14A9.64,9.64,0,0,0,234.08,23.16Z"/><path class="cls-66" d="M204.55,93.77c3.9-.47,6.68-3.21,9.87-5C231.29,79.16,248,69.32,264.8,59.59c5.6-3.25,11.24-6.43,16.88-9.6,1.21-.68,2.51-1.21,2.53-2.91a32,32,0,0,1,1.2,3.07c.8,2.77.06,4.28-3.18,3.87-3.83-.48-6.77.92-8.51,4.49-8.82,5.68-18.05,10.65-27.1,15.93q-17.48,10.17-35.05,20.17c-1.41.81-2.71,2.46-4.72,1.39A5.8,5.8,0,0,1,204.55,93.77Z"/><path class="cls-60" d="M224.19,54.66c-2.66,3.69-7,4.9-10.67,7.11-6.86,4.18-14,7.89-21,11.8-.2-.58-.46-1.13-.6-1.72-1.36-5.72-1.35-5.72,4.33-5.86,4.91-.12,7.11-3,6.35-8.24,5.35-2.78,10.79-5.4,15.54-9.19A8.08,8.08,0,0,1,224.19,54.66Z"/><path class="cls-67" d="M206.85,96c8.42-4.78,16.87-9.52,25.26-14.35,13.16-7.57,26.28-15.2,39.44-22.76a6.29,6.29,0,0,1,2.17-.38c0,1,0,2,0,2.94-21.55,11.85-42.77,24.27-63.9,36.83A6.64,6.64,0,0,1,206.85,96Z"/><path class="cls-68" d="M231.67,12.77c.41,2.58-.41,4.2-2.91,5.56-9.11,5-18,10.28-27.11,15.34-.75.42-2.14,2.68-3-.08,6.41-10.5,16-16.66,27.57-20A12.62,12.62,0,0,1,231.67,12.77Z"/><path class="cls-69" d="M244.49,103.46c6.68-2.72,12.56-6.87,18.82-10.35,4-2.22,7.93-4.58,11.87-6.9a6.18,6.18,0,0,1,3.59-.74c-7.29,12.23-18.27,19-32,21.76C242.74,108,245,104.89,244.49,103.46Z"/><path class="cls-70" d="M265.19,35.31c3.8-1,6.87-3.37,10.07-5.49a21.15,21.15,0,0,1,5.16,7.63c-2.49,3.34-6.48,4.43-9.8,6.5s-6.53,4.06-9.91,5.85c-1,.53-2.31,1.83-3.61.26-.15-1.74,1.2-2.62,2.22-3.59C262.55,43.4,265.68,40.32,265.19,35.31Z"/><path class="cls-71" d="M193.38,44.11c.2,1.89,1.27,1.44,2.34.85,4.33-2.38,8.78-4.56,12.74-7.56,2.32,1.06,3.22,3.25,4.27,5.32.1,1.81-1.23,2.63-2.5,3.34-4.6,2.59-9.1,5.38-13.78,7.83-6,.28-6,.28-4.57-5.7A9.89,9.89,0,0,1,193.38,44.11Z"/><path class="cls-72" d="M196.45,53.89c3-3.7,7.64-5,11.43-7.48,1.61-1.07,3.72-1.52,4.32-3.75a7.93,7.93,0,0,1,6,6,2.23,2.23,0,0,1-.93,1.94c-4.31,2.45-8.64,4.86-13,7.29a1.76,1.76,0,0,1-1.76-.14A7.44,7.44,0,0,0,196.45,53.89Z"/><path class="cls-73" d="M281,352.41a8.45,8.45,0,0,1,4.51,7.43,67.83,67.83,0,0,0-17.13,9.82c-2-1.46-3.61-3.21-3.81-5.86-.6-1.45-.38-2.72,1.07-3.49,4.69-2.49,9.17-5.37,13.9-7.79A2.21,2.21,0,0,1,281,352.41Z"/><path class="cls-74" d="M268.39,369.66a2.82,2.82,0,0,1,1.43-2.49c4.4-2.54,8.86-5,13.27-7.53a2.21,2.21,0,0,1,2.43.2,10,10,0,0,1-5.06,10.35A10.14,10.14,0,0,1,268.39,369.66Z"/><path class="cls-75" d="M281,352.41c-4.56,2.67-9.1,5.37-13.69,8-1.43.81-3,1.36-2.74,3.42a10.33,10.33,0,0,1,4.16-11.94A10.05,10.05,0,0,1,281,352.41Z"/><path class="cls-52" d="M179.91,369.69c-2.43-1.65-4.38-3.62-4.42-6.83,4.83-4.35,10.76-6.91,16.39-10a1.16,1.16,0,0,1,1.36.24c1.88,1.56,3.32,3.36,3.19,6-2.23,2.65-5.52,3.7-8.34,5.45S182.55,367.83,179.91,369.69Z"/><path class="cls-46" d="M193.24,353.13l-17.75,9.73c-.89-5.14.94-9.07,5.47-11.6C185,349,189.52,349.79,193.24,353.13Z"/><path class="cls-76" d="M179.91,369.69c0-1.51,1.08-2.08,2.22-2.69,4.8-2.57,9.24-5.8,14.3-7.89.74,4.88-.72,8.8-5.16,11.26C187.39,372.51,183.54,372.58,179.91,369.69Z"/><path class="cls-2" d="M202.47,232.4l-.63-.79c-.18-2-1.73-4.05-.17-6.15q10.54-10.76,21.11-21.5c5.47-5,10.68-10.21,15.67-15.66A187.08,187.08,0,0,0,252,174.72a142.52,142.52,0,0,0,11.91-11.92c2.52-2.38,5.07-4.68,9-4,3.45,1.43,4.11,4.28,3.86,7.59-.84,1.74-1.67,3.47-2.51,5.2q-2.87,5.28-5.72,10.55l-3.2,6c-1.65,2-2.47,4.46-3.57,6.77-.9,2.06-3.61,4.13-2.49,6,1,1.61,4.1.51,6.27.57,2.45.06,4.91-.13,7.36-.21a80.08,80.08,0,0,0,13.5,0l9,.26q1.85,1.62,3.68,3.25c0,1.68-.07,3.36-.11,5-6.13,6.58-13.39,11.91-20,18-.54.5-1,1.05-1.55,1.57l-23.22,20.25c-6.69,5.58-13.41,11.1-19.64,17.2a26.75,26.75,0,0,0-3.5,2.68,7.27,7.27,0,0,1-9,1.78c-3-1.16-3.43-3.57-3-6.37,1.68-3.27,2.94-6.77,5.29-9.68a32,32,0,0,0,4.42-6.66c.71-1.43,1.48-2.81,3.12-3.39,1.94-2.81,3.9-5.6,5.8-8.44,1.28-1.89.34-2.35-1.49-2.13H216.67l-10.47-.08Z"/><path class="cls-8" d="M219.7,264.66a8,8,0,0,0,2.33,6.68c-3.5,2-7,4-10.52,6a2.56,2.56,0,0,0-1.58,2.28h-15c-1-1.56.18-2.39,1.22-3,6.79-3.95,13.62-7.84,20.42-11.78C217.51,264.31,218.6,263.77,219.7,264.66Z"/><path class="cls-77" d="M231.85,245.23c-2.38,3.47-3.88,7.5-6.84,10.59-7.09,2.76-13.33,7.12-19.88,10.85-7.45,4.23-14.94,8.38-22.19,13H172.2c2.72-3.49,6.16-4.47,9-6.15,15.53-9.17,31.17-18.13,46.77-27.17A5.66,5.66,0,0,1,231.85,245.23Z"/><path class="cls-78" d="M182.94,279.63c1-3,4.05-3.53,6.27-4.85,10.32-6.16,20.79-12.09,31.28-17.95,1.27-.71,2.61-2.58,4.52-1l-5.31,8.84c-6.84,2.72-12.81,7-19.16,10.63-2,1.13-5.08,1.2-5.61,4.34Z"/><path class="cls-3" d="M218.2,48.66a36.23,36.23,0,0,0-6-6c-1.3-1.71-3-3.16-3.74-5.26.72-6.48,4.14-8.42,10.19-5.78l6,5.95a38.69,38.69,0,0,0,6,6c7.21,8.4,7.22,8.4,14.74.89,3-3,6-6,9-9,4.06-4,6.63-4,10.81-.19,1.51,3.62.24,6.4-2.47,8.9-2,1.84-3.76,3.89-5.62,5.85-4.19,4.1-8.54,8-12.5,12.35-2.87,3.12-5.92,4.36-9.94,2.88-1.6-1.89-2.95-4-5.25-5.19-1.9-1.66-2.89-4.19-5.22-5.44A35.79,35.79,0,0,0,218.2,48.66Z"/><path class="cls-3" d="M277.14,213.53l-21.4,18.6c.84-7.57-1-9.63-8-9.64-8.34,0-16.68,0-24.35,0l22.22-22.23a42.13,42.13,0,0,0-2.38,3.67c-2.42,5.15.06,9.28,5.93,9.39,8.36.15,16.73,0,25.1.05C274.85,213.37,275.46,213.43,277.14,213.53Z"/><path class="cls-79" d="M208.93,359.78c.84,10.76-6.94,20.88-18,23.45a6,6,0,0,0-1.24.63h-8.25c-.67-1.13-2-.94-3-1.3A23,23,0,0,1,163.6,356c2.42-11.12,12.55-18.54,24.33-17.84C199,338.77,208,348.07,208.93,359.78Z"/><path class="cls-79" d="M297.63,358.93c.82,12.06-6.57,21.76-18.56,24.41a3.86,3.86,0,0,0-.92.52H269.9c-.37-1.06-1.45-.86-2.2-1.14-11.2-4.12-17.69-15-15.44-25.92,2.46-12,12.47-19.55,24.73-18.68C287.62,338.88,296.9,348.23,297.63,358.93Z"/><path class="cls-79" d="M179.28,70.9a60.06,60.06,0,0,1,46.8-69.6c1.36-.29,3,0,4.09-1.3h15.74c1.48,1.41,3.48,1,5.21,1.38a60.16,60.16,0,0,1,47.21,61.11C297.39,91,275.5,115.27,247,119.36,215,124,184.75,102.35,179.28,70.9Z"/><path class="cls-79" d="M383.86,148.45v6.74c-3.69,9.39-6.05,19.18-8.95,28.8-9.54,31.62-18.94,63.29-28.41,94.93-2.8,9.34-8.1,13.33-17.81,13.33q-80.78,0-161.54,0a14,14,0,0,1-4.44-.51c-1-.34-2.08-1.95-3.2-.22a4,4,0,0,0,0,4.58c1.24,1.95,3.22,2.11,5.29,2.11q15.75,0,31.49,0,55.09,0,110.19,0a24.76,24.76,0,0,1,7.07.53,14.64,14.64,0,0,1,10.5,16.09,14.37,14.37,0,0,1-14.26,12.81c-20.12.09-40.23,0-60.35,0q-42.54,0-85.08,0c-19,0-32.88-12.19-35-31a31,31,0,0,1,6.27-22.54c1.55-2.08,1.59-3.55.91-6.11-1.73-6.49-2.61-13.2-3.76-19.84q-11-64-22.06-128c-1.21-7-3.13-8.51-10.29-8.51-7.49,0-15,.05-22.49,0a5,5,0,0,0-4.21,1.74,13.16,13.16,0,0,1-10.32,4.47c-14.62,0-29.23.11-43.85,0-8.78-.09-14.74-4.61-18.23-12.59-.38-.86-.22-2-1.32-2.54v-12c1.16-.77,1-2.17,1.57-3.25,3.51-7.19,9.07-11.71,17.22-11.83,15-.23,30-.08,45-.07a12.39,12.39,0,0,1,9.67,4.16c1.51,1.72,3.13,2,5.23,2,9.36,0,18.79-.59,28.08.28,17.87,1.68,30.62,14.75,33.46,33.08.94,6,2.1,12,3,18.08.28,1.87,1,2.67,2.89,2.46a22.87,22.87,0,0,1,2.62,0H364.13C375.68,135.64,379.46,138.1,383.86,148.45Z"/></g></g></g></svg>