<svg xmlns="http://www.w3.org/2000/svg" viewBox="0 0 490.36 421.09"><defs><style>.cls-1{fill:#081839;}.cls-2{fill:#00b1da;}</style></defs><g id="Layer_2" data-name="Layer 2"><g id="CME_HOURS" data-name="CME HOURS"><path class="cls-1" d="M234.29,244.46c2.49-6.69,5-13.36,7.45-20.07,3.58-9.82,7.08-19.68,10.63-29.51,3-8.26,8.73-13.23,17.63-13.44,7.83-.19,14.36,5.94,17.09,15.16,3.69,12.46,7.48,24.9,11,37.4,1.66,5.9,4.41,8.93,11.31,8.57,12.13-.64,24.32-.3,36.48-.14,11.46.15,18.61,7,18.61,17.46s-7.14,17.39-18.61,17.48c-16.41.13-32.84-.54-49.21.21-14.07.65-24.91-2.22-27.61-21.07-2.58,4.53-4,6.39-4.76,8.48-5.22,14.33-10.3,28.72-15.43,43.08-3.32,9.32-9.9,14.81-17.6,14.7-8-.11-14.72-6.08-17.59-15.81q-12.48-42.27-24.94-84.55a12.64,12.64,0,0,0-4.72-7c-3.4,15.33-6.93,30.63-10.16,46-2.65,12.64-8.09,17.35-20.92,17.36-15.84,0-31.68-.08-47.52.06C97.6,278.93,92,275.73,88,269c-26.72-43.93-53.73-87.68-80.3-131.7-11.43-18.94-9.93-39.25,3.58-56.25,16.87-21.22,34-42.19,51.08-63.27C75.78,1.16,93.52-2.62,113.42,1.57c13.52,2.85,26.7,7.35,40.25,10,17,3.26,29,14.77,42.31,24.09,14.81,10.35,28.6,22.29,44,31.6,7.75,4.68,18,5.51,27.29,7.29,10.23,2,20.63,3.09,31,4.43,13.92,1.81,24.75,8.71,33.61,19.4,22,26.52,44.21,52.84,66.22,79.35,5.29,6.37,11.26,10.09,19.95,11,14.81,1.56,29.87,3.29,44.08,7.49,19.92,5.89,31.36,27.44,27.51,47.72-.78,4.15-2.18,8.27-2.37,12.44-1.4,32-25.55,42-49.85,51.59-6.59,2.61-15.25-2.26-18.87-9.37-3.87-7.61-2-17,5.27-21.86a142.53,142.53,0,0,1,19.36-10.44c5-2.34,8.32-5.08,8.52-11.21.16-4.73,1.87-9.4,2.65-14.13,1.47-8.9-.82-11.82-9.67-13-12-1.62-24-3.7-36.08-4.92-16.11-1.62-27.61-10.38-37.51-22.29-21.84-26.29-43.92-52.37-65.62-78.77-4.51-5.48-9.74-8-16.57-8.78-14.84-1.72-29.63-3.94-44.45-5.84-16.35-2.11-27.88-13-40.43-22C189.77,75.07,175.37,65,161.75,54.05c-10.11-8.16-22.47-8.63-33.9-12.27-7.24-2.3-14.9-3.32-22.15-5.6-7.67-2.42-13.25.12-17.9,5.91C72.23,61.46,56.89,81,41.08,100.18c-6.09,7.39-6.64,13.87-1.49,22.18q34.85,56.16,68.79,112.87c3.84,6.42,8,8.89,15.49,8.59,21.92-.86,16.85,3.07,21.72-17.93,6.88-29.71,13.1-59.57,19.79-89.33,1.86-8.26,9.15-14.37,16.48-14.65,7.72-.29,15.07,5.63,17.7,14.43q15.16,50.76,30.29,101.54c.66,2.22,1.57,4.37,2.37,6.54Z"/><path class="cls-2" d="M209.28,421.09c-19.36-2.06-33.71-8.82-43.08-23.87q-21-33.81-41.53-68c-6.55-10.87-4.32-21.06,5.46-27,8.54-5.17,17.82-1.82,24.56,9.15q18.42,30,36.63,60c8.94,14.79,12.76,16.16,27.84,8.55Q294,342.2,368.83,304.21c11.51-5.82,21-3.57,26.15,5.92,5.27,9.77,2.11,18.92-9.74,25Q305.68,375.84,225.81,416C220.19,418.8,213.65,419.78,209.28,421.09Z"/></g></g></svg>