<?xml version="1.0" encoding="utf-8"?><svg xmlns="http://www.w3.org/2000/svg" xmlns:xlink="http://www.w3.org/1999/xlink" width="58px" height="58px" viewBox="0 0 100 100" preserveAspectRatio="xMidYMid" style="margin-right:-2px;display:block;background-repeat-y:initial;background-repeat-x:initial;animation-play-state:paused" ><g transform="translate(50 50)" style="transform:matrix(1, 0, 0, 1, 50, 50);animation-play-state:paused" ><g transform="matrix(1,0,0,1,0,0)" style="transform:matrix(1, 0, 0, 1, 0, 0);animation-play-state:paused" ><path d="M20.85665361461421 -7 L24.85665361461421 -7 L24.85665361461421 7 L20.85665361461421 7 A22 22 0 0 1 18.47673120688826 11.941959801824886 L18.47673120688826 11.941959801824886 L20.970690414323194 15.069285731697006 L10.02504965977078 23.79814295771927 L7.531090452335845 20.670817027847153 A22 22 0 0 1 2.183453343745471 21.891380301289516 L2.183453343745471 21.891380301289516 L1.2933696079202135 25.79109195001681 L-12.355621162625315 22.675798874628413 L-11.465537426800058 18.77608722590112 A22 22 0 0 1 -15.754009421568956 15.356144931105481 L-15.754009421568956 15.356144931105481 L-19.357884893178632 17.091679887575715 L-25.43225724082445 4.47811573694185 L-21.828381769214772 2.742580780471617 A22 22 0 0 1 -21.828381769214772 -2.7425807804716116 L-21.828381769214772 -2.7425807804716116 L-25.43225724082445 -4.478115736941843 L-19.357884893178635 -17.09167988757571 L-15.75400942156896 -15.35614493110548 A22 22 0 0 1 -11.46553742680007 -18.77608722590111 L-11.46553742680007 -18.77608722590111 L-12.35562116262533 -22.675798874628406 L1.293369607920217 -25.79109195001681 L2.1834533437454753 -21.891380301289516 A22 22 0 0 1 7.531090452335832 -20.67081702784716 L7.531090452335832 -20.67081702784716 L10.025049659770765 -23.798142957719282 L20.970690414323197 -15.069285731697002 L18.476731206888264 -11.941959801824883 A22 22 0 0 1 20.856653614614206 -7.000000000000013 M0 -11A11 11 0 1 0 0 11 A11 11 0 1 0 0 -11" fill="#081839" style="animation-play-state:paused" ></path></g></g><!-- generated by https://loading.io/ --></svg>