<svg id="Layer_1" data-name="Layer 1" xmlns="http://www.w3.org/2000/svg" viewBox="0 0 853 853"><defs><style>.cls-1{fill:none;}.cls-2{fill:#88bd2f;}</style></defs><rect class="cls-1" width="853" height="853"/><path class="cls-2" d="M309.82,273.24a54.09,54.09,0,1,0,54.09,54.09h0A54.09,54.09,0,0,0,309.82,273.24Zm332.56-99.17H209.63c-38.82,0-71.12,32.28-71.12,72.12V606.81c0,39.84,32.29,72.12,71.11,72.12H642.37a72.1,72.1,0,0,0,72.12-72.1V246.19c0-39.84-31.32-72.12-72.11-72.12Zm18,425.19L506.24,389.76c-2.82-5.18-9.24-8.34-16.11-8.34A21.24,21.24,0,0,0,473,389.74L352.85,552.13l-41.79-51.95a21.9,21.9,0,0,0-30.88-2.43,22.3,22.3,0,0,0-2.43,2.43L192.65,605.9h0l-.05-359.71a18.05,18.05,0,0,1,18-18H643.38a18.05,18.05,0,0,1,18,18V599.26Z"/></svg>