<svg xmlns="http://www.w3.org/2000/svg" viewBox="0 0 444.02 316.7"><defs><style>.cls-1{fill:#3f3f3f;}.cls-2{font-size:125.1px;fill:#333;}.cls-2,.cls-3{font-family:Montserrat-Bold, Montserrat;font-weight:700;}.cls-3{font-size:71.49px;fill:#016097;}.cls-4{fill:#c90000;}</style></defs><g id="Layer_2" data-name="Layer 2"><g id="Layer_1-2" data-name="Layer 1"><g id="Live"><path class="cls-1" d="M.06,273.05c0-6.82-.1-13.64,0-20.45.14-7.87,4.44-12.67,11.05-12.64S22,244.79,22.05,252.72c.12,12.27.15,24.54,0,36.81-.06,3.75,1.12,5.08,4.95,5q18.66-.29,37.32,0c9.7.16,15.57,8.89,10.6,16.14-1.92,2.79-6.21,5.39-9.53,5.53-14.63.59-29.31.63-43.95.13C8.82,315.92.48,306.79.1,294-.1,287,.07,280,.06,273.05Z"/><path class="cls-1" d="M443.93,273.94c0,6.48.12,12.95,0,19.43-.3,14-9.25,22.94-23.26,23.12-13.29.17-26.58.09-39.88,0-8.28-.05-13.27-4.22-13.34-10.91s5-11,13.15-11.09c11.76-.09,23.52-.2,35.27.06,4.54.1,6.3-1.07,6.15-5.94-.34-11.06-.11-22.15-.1-33.22a43.49,43.49,0,0,1,.15-5.11c.72-6.18,5-10.24,10.68-10.34a10.54,10.54,0,0,1,11,10.47c.39,7.82.09,15.67.09,23.51Z"/><path class="cls-1" d="M401,0c6.49,0,13-.08,19.45,0,14.07.23,23.19,9.07,23.4,23,.2,13.64.14,27.3,0,40.94-.08,7.76-4.66,12.68-11.21,12.53-6.35-.14-10.65-4.94-10.74-12.49-.13-12.28-.19-24.57,0-36.85.07-4.12-1.4-5.26-5.33-5.19-11.25.2-22.51.08-33.78.06a43.55,43.55,0,0,1-5.11-.15c-6.16-.75-10.26-5.06-10.33-10.74A10.67,10.67,0,0,1,378,.22c7.66-.37,15.35-.09,23-.09Z"/><path class="cls-1" d="M43,0C36.49,0,30,0,23.52.05,9.46.28.34,9.12.13,23.07-.07,36.71,0,50.37.13,64c.07,7.76,4.66,12.68,11.2,12.53C17.69,76.4,22,71.6,22.07,64.05c.14-12.28.2-24.57,0-36.85C22,23.08,23.43,21.94,27.36,22c11.26.2,22.52.08,33.78.06a43.42,43.42,0,0,0,5.11-.15c6.17-.75,10.26-5.06,10.33-10.74A10.66,10.66,0,0,0,66,.22C58.34-.15,50.65.13,43,.13Z"/><text class="cls-2" transform="translate(72.32 180.95)">LIVE</text><text class="cls-3" transform="translate(76.58 255.85)">ONLINE</text><path class="cls-4" d="M223.42,57.94c-.09,11.61-4.36,21.25-12.58,29.65a36,36,0,0,1-2.73,2.49,5.4,5.4,0,0,1-6.73,0,3.48,3.48,0,0,1,.06-5.57c7.15-6.26,11.51-13.7,12.38-22.37,1.05-10.34-2.27-19.64-10.42-27.56-.72-.71-1.47-1.4-2.2-2.1a3.52,3.52,0,0,1,.43-5.56,5.65,5.65,0,0,1,6.55.26A47.25,47.25,0,0,1,218.58,40a38.24,38.24,0,0,1,4.51,14.06C223.25,55.57,223.35,57.09,223.42,57.94Z"/><path class="cls-4" d="M118,58.54c.11-10.89,4.37-20.49,12.57-28.86A35.29,35.29,0,0,1,133.44,27a5.51,5.51,0,0,1,6.63.24,3.47,3.47,0,0,1-.15,5.48c-6.08,5.34-10.24,11.57-11.78,18.9-2.35,11.19.57,21.32,9,30.26.86.92,1.81,1.77,2.76,2.62,1.93,1.71,2,4.08.06,5.65a5.43,5.43,0,0,1-6.74-.12,44.08,44.08,0,0,1-12.51-17.22A37.14,37.14,0,0,1,118,58.54Z"/><path class="cls-4" d="M170.65,44.77A13.88,13.88,0,1,1,156.8,58.64,13.91,13.91,0,0,1,170.65,44.77Z"/><path class="cls-4" d="M205.1,58.68a26.45,26.45,0,0,1-9.69,20.2c-2.24,1.94-4.83,2.07-6.83.42s-2.11-4,.16-6a18.83,18.83,0,0,0,5.95-8.73c2.31-7.56.68-14.41-5.64-20.25-2.4-2.22-2.7-4.42-.62-6.2a5,5,0,0,1,6.65,0A26.86,26.86,0,0,1,202.76,48,23.89,23.89,0,0,1,205.1,58.68Z"/><path class="cls-4" d="M149.89,80.42c-2.65,0-3.94-1.41-5.23-2.67-6.23-6.14-9-13.32-8.31-21.35.62-7.14,4-13.34,10.07-18.4a5.16,5.16,0,0,1,5.83-.43c2,1.32,2.66,3.29,1.51,5.08a9.47,9.47,0,0,1-1.51,1.67,18.83,18.83,0,0,0-6.53,13.45c-.23,6,2,11.26,7,15.63,1.52,1.34,2.15,3,1.1,4.74A4.6,4.6,0,0,1,149.89,80.42Z"/></g></g></g></svg>