<svg xmlns="http://www.w3.org/2000/svg" width="27.001" height="26.999" viewBox="0 0 27.001 26.999">
  <path id="Shape_36" data-name="Shape 36" d="M1711.676,1120.7c.445-.224.9-.452,1.348-.678,1.073-.537,2.15-1.066,3.218-1.614a.338.338,0,0,1,.488.081,5.909,5.909,0,0,0,10.162-2.92,5.88,5.88,0,0,0-5.183-6.93,5.764,5.764,0,0,0-5,1.91c-.136.145-.227.183-.415.088q-2.192-1.114-4.4-2.2a.282.282,0,0,1-.186-.375,5.91,5.91,0,1,0-6.562,4.717,5.7,5.7,0,0,0,5.01-1.745c.055-.055.107-.114.16-.172l.148-.159c.065.027.128.048.187.078,1.484.741,2.965,1.487,4.452,2.22a.29.29,0,0,1,.178.387,5.762,5.762,0,0,0,0,2.27c.029.145.041.248-.127.331-1.557.77-3.109,1.549-4.683,2.336a5.892,5.892,0,0,0-4.714-2.131,5.747,5.747,0,0,0-3.764,1.476,5.91,5.91,0,0,0,5.786,10.033A5.965,5.965,0,0,0,1711.676,1120.7Zm-2.514-13.789a3.255,3.255,0,1,1-3.218-3.246A3.248,3.248,0,0,1,1709.162,1106.912Zm0,15.16a3.256,3.256,0,1,1-3.258-3.229A3.261,3.261,0,0,1,1709.162,1122.072Zm11.912-4.315a3.249,3.249,0,1,1,3.263-3.2A3.26,3.26,0,0,1,1721.075,1117.757Z" transform="translate(-1699.999 -1101.001)" fill="#00b1da"/>
</svg>
