<svg id="Layer_1" data-name="Layer 1" xmlns="http://www.w3.org/2000/svg" viewBox="0 0 853 853"><defs><style>.cls-1{fill:none;}.cls-2{fill:#8e2a8a;}</style></defs><rect class="cls-1" width="853" height="853"/><path class="cls-2" d="M714.43,311c0-35.36-26.51-52.64-58.81-38.31-23.18,10.28-46.14,21.06-69.25,31.52-10,4.51-20,8.76-31.46,13.75-.32-6.33-.64-10.27-.69-14.2-.54-41.63-25.61-68.58-67-68.88q-140.31-1-280.65,0c-39.3.31-67.06,26.24-67.42,63.11q-1.26,128.27,0,256.53c.36,36.48,28.11,63.54,64.14,63.72q143.66.72,287.33,0c32.57-.15,57.52-22.89,62.42-55,1.31-8.61,1.42-17.41,2.19-27.62,5.3,2.1,9.37,3.53,13.28,5.31,29.16,13.25,58.26,26.65,87.45,39.85,31.34,14.18,58.42-3.06,58.47-37.33Q714.57,427.26,714.43,311ZM508,549.84c-.05,17.18-5.53,22-22.89,22q-138.21.1-276.44,0c-18.54,0-23.42-5.09-23.43-24.07q-.09-121.5,0-243c0-18.46,4.47-22.86,22.82-22.88q69.45-.09,138.89,0t138.89,0c17,0,22.06,4.26,22.11,20.94Q508.37,426.34,508,549.84Zm158.52-15.06c-7.55-3.29-14.36-6.11-21-9.2-27.44-12.69-55-25.11-82.07-38.56-4.28-2.13-8.67-9-8.79-13.72-.78-31.13-.61-62.29-.16-93.43.06-4.16,2.27-10.56,5.36-12.06,34.71-16.8,69.78-32.84,106.71-50Z"/></svg>