<svg id="apps_1_" data-name="apps (1)" xmlns="http://www.w3.org/2000/svg" width="12.003" height="12.003" viewBox="0 0 12.003 12.003">
  <path id="Path_109353" data-name="Path 109353" d="M2,0H3.5a2,2,0,0,1,2,2V3.5a2,2,0,0,1-2,2H2a2,2,0,0,1-2-2V2A2,2,0,0,1,2,0Z" fill="#1279cb"/>
  <path id="Path_109354" data-name="Path 109354" d="M279.334,0h1.5a2,2,0,0,1,2,2V3.5a2,2,0,0,1-2,2h-1.5a2,2,0,0,1-2-2V2A2,2,0,0,1,279.334,0Z" transform="translate(-270.832)" fill="#1279cb"/>
  <path id="Path_109355" data-name="Path 109355" d="M2,277.333H3.5a2,2,0,0,1,2,2v1.5a2,2,0,0,1-2,2H2a2,2,0,0,1-2-2v-1.5A2,2,0,0,1,2,277.333Z" transform="translate(0 -270.831)" fill="#1279cb"/>
  <path id="Path_109356" data-name="Path 109356" d="M279.334,277.333h1.5a2,2,0,0,1,2,2v1.5a2,2,0,0,1-2,2h-1.5a2,2,0,0,1-2-2v-1.5A2,2,0,0,1,279.334,277.333Z" transform="translate(-270.832 -270.831)" fill="#1279cb"/>
</svg>
