<svg xmlns="http://www.w3.org/2000/svg" width="12.001" height="12.003" viewBox="0 0 12.001 12.003">
  <g id="exit" transform="translate(-0.032)">
    <path id="Path_109357" data-name="Path 109357" d="M4.033,10.5h-2.3a.205.205,0,0,1-.2-.2V1.7a.205.205,0,0,1,.2-.2h2.3a.75.75,0,1,0,0-1.5h-2.3a1.707,1.707,0,0,0-1.7,1.7V10.3a1.707,1.707,0,0,0,1.7,1.7h2.3a.75.75,0,0,0,0-1.5Z" fill="#e94a40"/>
    <path id="Path_109358" data-name="Path 109358" d="M115.541,98.157l-1.941-1.94a.75.75,0,0,0-1.061,1.061l1.706,1.706-6.8.014a.75.75,0,0,0,0,1.5h0l6.825-.013-1.734,1.734a.75.75,0,0,0,1.061,1.06l1.94-1.94a2.25,2.25,0,0,0,0-3.183h0Z" transform="translate(-104.165 -93.747)" fill="#e94a40"/>
  </g>
</svg>
