<svg xmlns="http://www.w3.org/2000/svg" width="23.997" height="23.997" viewBox="0 0 23.997 23.997">
  <g id="wallet_483742" transform="translate(-0.003 0)">
    <g id="Group_44068" data-name="Group 44068" transform="translate(0.003 0)">
      <g id="Group_44067" data-name="Group 44067" transform="translate(0 0)">
        <path id="Path_109369" data-name="Path 109369" d="M22.364,19.634H18.546a4.363,4.363,0,1,1,0-8.726h3.818a.545.545,0,0,0,.545-.545V8.727A2.177,2.177,0,0,0,20.9,6.563L17.769,1.092a2.158,2.158,0,0,0-2.961-.8L4.07,6.545H2.185A2.184,2.184,0,0,0,0,8.727V21.816A2.184,2.184,0,0,0,2.185,24H20.728a2.184,2.184,0,0,0,2.182-2.182V20.18A.545.545,0,0,0,22.364,19.634ZM18.446,4.469l1.188,2.076H14.88ZM6.238,6.545l9.119-5.308a1.055,1.055,0,0,1,.81-.109,1.069,1.069,0,0,1,.655.506v0L8.391,6.545Z" transform="translate(-0.003 0)" fill="#1dc894"/>
        <path id="Path_109370" data-name="Path 109370" d="M305.76,234.674h-3.818a3.272,3.272,0,0,0,0,6.545h3.818a1.638,1.638,0,0,0,1.636-1.636V236.31A1.638,1.638,0,0,0,305.76,234.674Zm-3.818,4.363a1.091,1.091,0,1,1,1.091-1.091A1.092,1.092,0,0,1,301.942,239.037Z" transform="translate(-283.399 -222.675)" fill="#1dc894"/>
      </g>
    </g>
  </g>
</svg>
