<svg xmlns="http://www.w3.org/2000/svg" xmlns:xlink="http://www.w3.org/1999/xlink" width="191.881" height="64.013" viewBox="0 0 191.881 64.013">
  <defs>
    <linearGradient id="linear-gradient" x1="0.024" y1="0.5" x2="0.962" y2="0.53" gradientUnits="objectBoundingBox">
      <stop offset="0" stop-color="#7ffaa6"/>
      <stop offset="1" stop-color="#7efacb"/>
    </linearGradient>
  </defs>
  <g id="Group_42223" data-name="Group 42223" transform="translate(-11992.508 8318.716)">
    <g id="Group_42205" data-name="Group 42205" transform="translate(11992.508 -8318.716)">
      <path id="Path_78476" data-name="Path 78476" d="M8.067-151.6H62.224a1.949,1.949,0,0,1,1.937,1.937v24.447a1.949,1.949,0,0,1-1.937,1.937H8.067a1.949,1.949,0,0,1-1.937-1.937v-24.447A1.94,1.94,0,0,1,8.067-151.6Z" transform="translate(-6.13 151.6)" fill="#fff"/>
      <path id="path42" d="M10.96-140.61H29.88v6.292H10.96v-6.292" transform="translate(-4.13 156.149)" fill="#77bd2c"/>
      <path id="path44" d="M10.96-146.68H29.88v6.292H10.96v-6.292" transform="translate(-4.13 153.637)" fill="#4a9bdb"/>
      <path id="path46" d="M38.822-141.22l-.17.028v2.206l-.141-.028h-.028a2.807,2.807,0,0,0-.848-.141c-1.852,0-2.234,1.386-2.234,2.559a2.271,2.271,0,0,0,2.446,2.531,4.939,4.939,0,0,0,1.64-.212.744.744,0,0,0,.622-.792v-6.32c-.4.042-.863.127-1.287.17m-.17,5.953-.085.028a2.153,2.153,0,0,1-.594.085c-.495,0-1.089-.24-1.089-1.442,0-.594.113-1.414,1-1.414h0a2.9,2.9,0,0,1,.679.141l.085.028v2.573h0" transform="translate(5.988 155.827)" fill="#242528"/>
      <path id="path48" d="M41.871-139.84a5.719,5.719,0,0,0-1.881.325l-.467.141.17,1.06.467-.17a4.664,4.664,0,0,1,1.527-.24c.184,0,.82,0,.82.679v.3h-.877c-1.555,0-2.291.495-2.291,1.584,0,.933.679,1.471,1.8,1.471a4.816,4.816,0,0,0,1.258-.17h.057l.141.028c.438.085.9.17,1.329.24v-3.521c-.028-1.159-.721-1.725-2.05-1.725m.622,3.973-.085.028-.269.085a2.621,2.621,0,0,1-.679.113c-.438,0-.679-.212-.679-.566,0-.24.113-.622.82-.622h.933l-.042.961" transform="translate(7.62 156.468)" fill="#242528"/>
      <path id="path50" d="M34.161-139.84a5.719,5.719,0,0,0-1.881.325l-.467.141.17,1.06.467-.17a4.664,4.664,0,0,1,1.527-.24c.184,0,.82,0,.82.679v.3h-.877c-1.555,0-2.291.495-2.291,1.584,0,.933.679,1.471,1.8,1.471a4.816,4.816,0,0,0,1.258-.17h.057l.141.028c.438.085.9.17,1.329.24v-3.521c-.028-1.159-.721-1.725-2.05-1.725m.622,3.973-.085.028-.269.085a2.621,2.621,0,0,1-.679.113c-.438,0-.679-.212-.679-.566,0-.24.113-.622.82-.622h.933l-.042.961h0" transform="translate(4.427 156.468)" fill="#242528"/>
      <path id="path52" d="M31.22-139.839a3.849,3.849,0,0,0-1.527.325l-.057.028-.057-.028a2.446,2.446,0,0,0-1.357-.325,5.633,5.633,0,0,0-1.612.24.744.744,0,0,0-.65.82v4h1.5v-3.7l.085-.028a1.754,1.754,0,0,1,.65-.113.58.58,0,0,1,.65.523v3.337h1.471v-3.21a.662.662,0,0,0-.057-.325l-.057-.113.113-.057a1.65,1.65,0,0,1,.735-.17.58.58,0,0,1,.65.523v3.337h1.471V-138.1c-.014-1.174-.636-1.739-1.951-1.739" transform="translate(2.08 156.467)" fill="#242528"/>
      <path id="path54" d="M43.619-146.68h-.057a2.584,2.584,0,0,0-2.05.707,1.51,1.51,0,0,0-.269.848h0v2.234a.421.421,0,0,1-.057.269l-.057.113H38.4v-1.555h0A2.307,2.307,0,0,0,36-146.6H34.64c-.057.41-.113.679-.17,1.089h1.357c.707,0,1.089.594,1.089,1.527v1.555l-.085-.057a1.308,1.308,0,0,0-.325-.057H34.16c-.057.3-.113.679-.17,1.061h7.226a7.749,7.749,0,0,1,.792-.141,4.193,4.193,0,0,0,1.5.269,2.48,2.48,0,0,0,2.588-2.672,2.4,2.4,0,0,0-2.475-2.658m0,4.086a4.717,4.717,0,0,1-.877-.085l-.085-.028v-2.149a.963.963,0,0,0-.028-.3l-.057-.085.113-.028c.028,0,.057-.028.085-.028H42.8l.113-.028h.028a3.511,3.511,0,0,1,.764-.085h0c.933,0,1,.82,1,1.414-.028,1.159-.594,1.4-1.089,1.4" transform="translate(5.405 153.637)" fill="#242528"/>
      <path id="path56" d="M34.3-140.839h.057c1.555,0,2.291-.523,2.291-1.8a1.634,1.634,0,0,0-1.8-1.64H33.408a.612.612,0,0,1-.679-.551v-.113c0-.269.113-.622.82-.622h3.167c.057-.41.113-.679.17-1.089H33.62c-1.527,0-2.291.622-2.291,1.711,0,1.06.679,1.612,1.8,1.612h1.442a.67.67,0,0,1,.679.679v.028a.718.718,0,0,1-.679.735H28.7c-.707,0-1.2-.41-1.2-1.329v-.65c0-.976.382-1.584,1.2-1.584h1.357c.057-.41.113-.679.17-1.06H28.374a2.345,2.345,0,0,0-2.4,2.559h0v.735a2.228,2.228,0,0,0,2.4,2.432H34.3v-.057" transform="translate(2.084 153.649)" fill="#242528"/>
    </g>
    <g id="Group_42207" data-name="Group 42207" transform="translate(12059.487 -8318.716)">
      <path id="Path_78477" data-name="Path 78477" d="M55.8-151.6h54.157a1.949,1.949,0,0,1,1.937,1.937v24.447a1.949,1.949,0,0,1-1.937,1.937H55.8a1.949,1.949,0,0,1-1.937-1.937v-24.447A1.949,1.949,0,0,1,55.8-151.6Z" transform="translate(-53.86 151.6)" fill="#fff"/>
      <g id="Group_42206" data-name="Group 42206" transform="translate(8.208 7.445)">
        <path id="Path_78478" data-name="Path 78478" d="M-536.3-351.8h-3.379l2.121-13.079h3.38Z" transform="translate(554.414 365.135)" fill="#00579f"/>
        <path id="Path_78479" data-name="Path 78479" d="M-525.635-364.508a7.966,7.966,0,0,0-3.026-.551c-3.351,0-5.7,1.767-5.727,4.327-.028,1.881,1.7,2.913,2.969,3.549,1.315.622,1.739,1.06,1.739,1.64,0,.877-1.06,1.287-2.05,1.287a6.885,6.885,0,0,1-3.2-.707l-.438-.212-.467,2.941a10.422,10.422,0,0,0,3.789.707c3.549,0,5.854-1.739,5.882-4.468,0-1.5-.9-2.644-2.828-3.577-1.174-.594-1.909-1-1.909-1.612.028-.551.622-1.117,1.965-1.117a5.823,5.823,0,0,1,2.531.495l.3.141.467-2.842Z" transform="translate(556.008 365.061)" fill="#00579f"/>
        <path id="Path_78480" data-name="Path 78480" d="M-523.9-356.43c.269-.764,1.357-3.648,1.357-3.648-.028.028.269-.764.438-1.258l.24,1.117s.651,3.139.792,3.789Zm4.171-8.47h-2.616a1.667,1.667,0,0,0-1.768,1.089l-5.048,12.019h3.549s.566-1.612.707-1.965h4.355c.113.467.41,1.965.41,1.965H-517l-2.729-13.107Z" transform="translate(558.77 365.127)" fill="#00579f"/>
        <path id="Path_78481" data-name="Path 78481" d="M-539.249-364.9l-3.323,8.936-.354-1.8a9.822,9.822,0,0,0-4.695-5.472l3.026,11.453h3.578l5.317-13.079-3.549-.042Z" transform="translate(551.127 365.127)" fill="#00579f"/>
        <path id="Path_78482" data-name="Path 78482" d="M-544.6-364.9h-5.444l-.057.269c4.256,1.089,7.056,3.7,8.23,6.844l-1.174-6.023A1.454,1.454,0,0,0-544.6-364.9Z" transform="translate(550.1 365.127)" fill="#faa61a"/>
      </g>
    </g>
    <g id="Group_42212" data-name="Group 42212" transform="translate(11993.17 -8282.968)">
      <path id="Path_78483" data-name="Path 78483" d="M56.017,39.17h54.044A1.949,1.949,0,0,1,112,41.107V65.5a1.949,1.949,0,0,1-1.937,1.937H56.017A1.949,1.949,0,0,1,54.08,65.5V41.107A1.959,1.959,0,0,1,56.017,39.17Z" transform="translate(-54.08 -39.17)" fill="#fff"/>
      <g id="Group_42211" data-name="Group 42211" transform="translate(12.87 7.324)">
        <g id="Group_42209" data-name="Group 42209">
          <path id="Path_78484" data-name="Path 78484" d="M67.974,46.1a2.414,2.414,0,0,0,.566-1.753,2.5,2.5,0,0,0-1.626.834,2.306,2.306,0,0,0-.58,1.7,2.121,2.121,0,0,0,1.64-.778" transform="translate(-61.882 -44.35)"/>
          <path id="Path_78485" data-name="Path 78485" d="M69.825,46.221c-.9-.057-1.669.509-2.107.509s-1.089-.481-1.81-.467a2.65,2.65,0,0,0-2.262,1.372c-.976,1.668-.255,4.157.693,5.514.452.679,1.018,1.414,1.739,1.386.693-.028.962-.452,1.8-.452s1.075.452,1.81.438,1.23-.679,1.683-1.343a5.886,5.886,0,0,0,.749-1.555,2.446,2.446,0,0,1-1.471-2.22,2.5,2.5,0,0,1,1.188-2.093,2.547,2.547,0,0,0-2.008-1.089" transform="translate(-63.181 -43.577)"/>
        </g>
        <g id="Group_42210" data-name="Group 42210" transform="translate(10.73 0.764)">
          <path id="Path_78486" data-name="Path 78486" d="M74.56,44.89a3.33,3.33,0,1,1-.042,6.66H72.34v3.464H70.77V44.89Zm-2.22,5.345h1.81a2.012,2.012,0,1,0,.014-4.016h-1.81v4.016Z" transform="translate(-70.77 -44.89)"/>
          <path id="Path_78487" data-name="Path 78487" d="M76.1,52.145c0-1.287.99-2.079,2.743-2.178l2.022-.113v-.566c0-.82-.551-1.315-1.485-1.315a1.411,1.411,0,0,0-1.555,1.075H76.383c.085-1.329,1.216-2.319,3.04-2.319,1.8,0,2.927.947,2.927,2.432v5.09H80.908V53.036h-.028a2.635,2.635,0,0,1-2.333,1.343A2.237,2.237,0,0,1,76.1,52.145Zm4.751-.665V50.9l-1.824.113c-.9.057-1.414.467-1.414,1.089,0,.65.537,1.06,1.343,1.06A1.752,1.752,0,0,0,80.851,51.481Z" transform="translate(-68.563 -44.128)"/>
          <path id="Path_78488" data-name="Path 78488" d="M81.715,56.922v-1.23a2.825,2.825,0,0,0,.495.028,1.236,1.236,0,0,0,1.315-1.046c0-.014.127-.452.127-.452L80.98,46.84h1.64l1.867,6.009h.028l1.867-6.009h1.6L85.222,54.6c-.636,1.8-1.357,2.361-2.885,2.361C82.21,56.95,81.828,56.936,81.715,56.922Z" transform="translate(-66.543 -44.083)"/>
        </g>
      </g>
    </g>
    <g id="Group_42215" data-name="Group 42215" transform="translate(12126.47 -8318.716)">
      <path id="Path_78489" data-name="Path 78489" d="M7.667-183.85H61.711a1.949,1.949,0,0,1,1.937,1.937v24.391a1.949,1.949,0,0,1-1.937,1.937H7.667a1.949,1.949,0,0,1-1.937-1.937v-24.391A1.949,1.949,0,0,1,7.667-183.85Z" transform="translate(-5.73 183.85)" fill="#fff"/>
      <g id="Group_42214" data-name="Group 42214" transform="translate(12.623 1.123)">
        <rect id="Rectangle_22944" data-name="Rectangle 22944" width="33.159" height="27.205" transform="translate(0 0)" fill="none"/>
        <path id="Path_78490" data-name="Path 78490" d="M-877.832-358.47v-1.357a.837.837,0,0,0-.735-.877h-.113a.873.873,0,0,0-.763.382.78.78,0,0,0-.707-.382.729.729,0,0,0-.622.325v-.269h-.467v2.149h.467v-1.2a.518.518,0,0,1,.438-.566h.113c.3,0,.467.184.467.566v1.2h.467v-1.2a.519.519,0,0,1,.438-.566h.085c.325,0,.467.184.467.566v1.2Zm7.014-2.149h-.764v-.65h-.467v.65h-.438v.438h.438v1c0,.495.184.792.763.792a1.113,1.113,0,0,0,.594-.17l-.141-.41a.751.751,0,0,1-.41.113c-.212,0-.3-.141-.3-.353v-.976h.764Zm4-.057a.605.605,0,0,0-.566.325v-.269h-.467v2.149h.467v-1.23c0-.353.17-.537.467-.537a1.1,1.1,0,0,1,.3.057l.141-.467a.71.71,0,0,0-.339-.028Zm-6.066.226a1.378,1.378,0,0,0-.877-.212c-.537,0-.891.269-.891.679,0,.354.269.566.735.622l.212.028c.24.028.382.113.382.212,0,.17-.17.269-.495.269a1.34,1.34,0,0,1-.707-.212l-.212.354a1.434,1.434,0,0,0,.919.269c.622,0,.976-.3.976-.707s-.269-.566-.763-.65l-.212-.028c-.184-.028-.354-.057-.354-.212s.17-.24.41-.24a1.289,1.289,0,0,1,.679.184Zm12.6-.226a.606.606,0,0,0-.566.325v-.269h-.467v2.149h.467v-1.23c0-.353.17-.537.467-.537a1.1,1.1,0,0,1,.3.057l.141-.467a.723.723,0,0,0-.339-.028Zm-6.066,1.117a1.1,1.1,0,0,0,1.061,1.145h.113a1.248,1.248,0,0,0,.792-.24l-.212-.382a.827.827,0,0,1-.566.184.673.673,0,0,1-.622-.735.693.693,0,0,1,.622-.622,1.077,1.077,0,0,1,.566.184l.212-.382a1.045,1.045,0,0,0-.792-.24,1.1,1.1,0,0,0-1.145,1.032c-.028-.028-.028.028-.028.057Zm4.4,0v-1.089h-.467v.269a.851.851,0,0,0-.679-.325,1.126,1.126,0,0,0-1.089,1.174,1.118,1.118,0,0,0,1.089,1.089.831.831,0,0,0,.679-.325v.269h.467Zm-1.739,0a.635.635,0,0,1,.679-.594.635.635,0,0,1,.594.679.635.635,0,0,1-.679.594.687.687,0,0,1-.438-.184A.675.675,0,0,1-863.692-359.559Zm-5.684-1.117a1.127,1.127,0,0,0-1.089,1.174,1.164,1.164,0,0,0,1.117,1.089,1.2,1.2,0,0,0,.891-.3l-.212-.354a1.034,1.034,0,0,1-.622.212.618.618,0,0,1-.65-.523h1.6v-.184a1.012,1.012,0,0,0-1.032-1.117Zm0,.41a.517.517,0,0,1,.537.523h-1.145a.645.645,0,0,1,.608-.523Zm11.779.707v-1.951h-.467v1.145a.851.851,0,0,0-.679-.325,1.126,1.126,0,0,0-1.089,1.174,1.118,1.118,0,0,0,1.089,1.089.831.831,0,0,0,.679-.325v.269h.467Zm.792.764a.183.183,0,0,1,.184.141.18.18,0,0,1,0,.17.22.22,0,0,1-.113.113c-.028,0-.057.028-.085.028a.183.183,0,0,1-.184-.141.18.18,0,0,1,0-.17.213.213,0,0,1,.2-.141Zm0,.382h.057c.028,0,.028-.028.057-.028a.154.154,0,0,0,0-.212.215.215,0,0,0-.113-.056h-.057a.167.167,0,0,0-.085.212c.028.057.085.113.141.085Zm0-.24c.028,0,.057,0,.057.028.028,0,.028.028.028.057s0,.028-.028.028a.1.1,0,0,1-.057.028l.057.085h-.057l-.057-.085h-.028v.085h-.057v-.184Zm-.028.028v.057h.085v-.085l-.028.028Zm-2.5-.933a.635.635,0,0,1,.679-.594.635.635,0,0,1,.594.679.635.635,0,0,1-.679.594.687.687,0,0,1-.438-.184A.825.825,0,0,1-859.337-359.559Zm-15.851,0v-1.089h-.467v.269a.851.851,0,0,0-.679-.325,1.135,1.135,0,0,0-1.174,1.089,1.135,1.135,0,0,0,1.089,1.174h.085a.831.831,0,0,0,.679-.325v.269h.467Zm-1.753,0a.268.268,0,0,1,.269.269.268.268,0,0,1-.269.269.268.268,0,0,1-.269-.269.278.278,0,0,1,.269-.269Z" transform="translate(886.048 382.239)" fill="#231f20"/>
        <g id="Group_42213" data-name="Group 42213" transform="translate(3.392 3.416)">
          <rect id="Rectangle_22945" data-name="Rectangle 22945" width="7.127" height="12.782" transform="translate(9.633 1.743)" fill="#ff5f00"/>
          <path id="Path_78491" data-name="Path 78491" d="M-884.751-378.2a8.157,8.157,0,0,1,3.1-6.391,8.138,8.138,0,0,0-11.425,1.357,8.137,8.137,0,0,0,1.357,11.425,8.114,8.114,0,0,0,10.039,0,8.2,8.2,0,0,1-3.068-6.391Z" transform="translate(894.822 386.332)" fill="#eb001b"/>
          <path id="Path_78492" data-name="Path 78492" d="M-872.346-378.2a8.141,8.141,0,0,1-8.131,8.13,8.231,8.231,0,0,1-5.034-1.739,8.137,8.137,0,0,0,1.357-11.425,8.213,8.213,0,0,0-1.357-1.357,8.138,8.138,0,0,1,11.425,1.357,8.058,8.058,0,0,1,1.739,5.034Z" transform="translate(898.678 386.332)" fill="#f79e1b"/>
          <path id="Path_78493" data-name="Path 78493" d="M-876.694-376.925v-.269h.113v-.057h-.269v.057h.113v.269Zm.523,0v-.325h-.085l-.085.212-.085-.212h-.085v.325h.057v-.24l.085.212h.057l.085-.212v.24Z" transform="translate(902.263 390.092)" fill="#f79e1b"/>
        </g>
      </g>
    </g>
    <g id="Group_42218" data-name="Group 42218" transform="translate(12059.602 -8282.969)">
      <path id="Path_78494" data-name="Path 78494" d="M7.687,6.92H61.731a1.949,1.949,0,0,1,1.937,1.937V33.248a1.949,1.949,0,0,1-1.937,1.937H7.687A1.949,1.949,0,0,1,5.75,33.248V8.857A1.949,1.949,0,0,1,7.687,6.92Z" transform="translate(-5.75 -6.92)" fill="#fff"/>
      <g id="Group_42217" data-name="Group 42217" transform="translate(4.44 6.928)">
        <path id="Path_78495" data-name="Path 78495" d="M31.38,21.623V14.016h1.287v.608a2.081,2.081,0,0,1,1.7-.764,2.631,2.631,0,0,1,2.559,2.884,2.644,2.644,0,0,1-2.559,2.9,2.072,2.072,0,0,1-1.7-.778v2.743l-1.287.014Zm1.287-5.585v1.4a1.588,1.588,0,0,0,1.471.976c.863,0,1.428-.636,1.428-1.7,0-1.032-.58-1.668-1.428-1.668a1.638,1.638,0,0,0-1.471.99" transform="translate(0.421 -10.976)" fill="#00a97c"/>
        <path id="Path_78496" data-name="Path 78496" d="M35.89,17.881a1.63,1.63,0,0,1,1.527-1.7l2.192-.283v-.269a.448.448,0,0,0-.481-.509H36.371V13.95h2.8c1.117,0,1.725.551,1.725,1.513v3.959h-1.3v-.665a2.108,2.108,0,0,1-1.81.834,1.709,1.709,0,0,1-1.895-1.711m2.22.679a1.6,1.6,0,0,0,1.5-.919v-.693l-1.683.226c-.467.057-.721.311-.721.707,0,.438.339.679.9.679" transform="translate(2.289 -10.938)" fill="#00a97c"/>
        <path id="Path_78497" data-name="Path 78497" d="M40.18,20.408h.947a.588.588,0,0,0,.636-.481l.17-.481L39.94,13.96h1.343l1.244,3.818h.028l1.188-3.818h1.329L42.9,20.252c-.3.863-.693,1.329-1.654,1.329H40.195l-.014-1.174Z" transform="translate(3.965 -10.934)" fill="#00a97c"/>
        <path id="Path_78498" data-name="Path 78498" d="M13.627,26.228a4.99,4.99,0,0,0,3.549-1.258,3.263,3.263,0,0,0,.962-2.361,3,3,0,0,0-.9-2.192A4.753,4.753,0,0,0,14.758,19.2l-1.725-.339c-.721-.127-1.117-.495-1.117-.99,0-.65.636-1.1,1.64-1.1a2.071,2.071,0,0,1,1.527.566,1.633,1.633,0,0,1,.424.919L18,17.688a3.091,3.091,0,0,0-.919-1.866,5.04,5.04,0,0,0-3.563-1.315,4.912,4.912,0,0,0-3.309,1.159,3.467,3.467,0,0,0-1.018,2.446,2.8,2.8,0,0,0,.806,2.064,4.832,4.832,0,0,0,2.361,1.188l1.711.41c.863.2,1.23.523,1.23,1.075,0,.693-.636,1.1-1.669,1.1A2.29,2.29,0,0,1,11.9,23.3a1.611,1.611,0,0,1-.452-1.032l-2.559.566a3.21,3.21,0,0,0,.962,1.98,5.237,5.237,0,0,0,3.775,1.414m18.962,0a5.349,5.349,0,0,0,3.818-1.456A5.031,5.031,0,0,0,37.75,22.51l-2.63-.877a2.479,2.479,0,0,1-.693,1.159,2.527,2.527,0,0,1-1.852.693,2.823,2.823,0,0,1-1.994-.806,3.241,3.241,0,0,1-.834-2.319,3.217,3.217,0,0,1,.834-2.319,2.72,2.72,0,0,1,1.98-.792,2.394,2.394,0,0,1,1.782.679,2.955,2.955,0,0,1,.679,1.188l2.672-.9a5.026,5.026,0,0,0-1.258-2.22,5.485,5.485,0,0,0-3.931-1.5,5.68,5.68,0,0,0-4.058,1.64,5.936,5.936,0,0,0-1.669,4.228,5.875,5.875,0,0,0,1.711,4.228,5.674,5.674,0,0,0,4.1,1.64m-9.064,0a3.737,3.737,0,0,0,2.361-.679V23.118a2.621,2.621,0,0,1-1.513.452,1.559,1.559,0,0,1-1.117-.353,1.553,1.553,0,0,1-.339-1.117V11.82H19.948v3.026h5.925V17.73H19.933v5.1a3.4,3.4,0,0,0,.877,2.446,3.836,3.836,0,0,0,2.715.947" transform="translate(-8.89 -11.82)" fill="#512d82"/>
      </g>
    </g>
    <g id="Group_42219" data-name="Group 42219" transform="translate(12126.032 -8283.027)">
      <path id="Path_78499" data-name="Path 78499" d="M109.683,35.222H55.639a2.112,2.112,0,0,1-2.149-2.064V8.965A2.122,2.122,0,0,1,55.639,6.9H109.7a2.1,2.1,0,0,1,2.149,2.064h0V33.158a2.1,2.1,0,0,1-2.163,2.064Z" transform="translate(-53.49 -6.9)" fill="url(#linear-gradient)"/>
      <path id="Path_78500" data-name="Path 78500" d="M89,13.97,86.1,25.055l-.014.028h2.277l2.9-11.114Z" transform="translate(-39.993 -3.973)" fill="#292929"/>
      <path id="Path_78501" data-name="Path 78501" d="M64.125,21.088a2.475,2.475,0,0,1-1.1.255c-.82,0-1.273-.127-1.329-.792h0v-3.62h0V14.824l-2.022.269a2.519,2.519,0,0,0,2.149-2.418V12.01H59.557v3.1l-.127.042V20.89a2.585,2.585,0,0,0,2.885,2.573,4.776,4.776,0,0,0,1.824-.368h0V21.088Z" transform="translate(-51.031 -4.784)" fill="#292929"/>
      <path id="Path_78502" data-name="Path 78502" d="M64.877,13.68l-6.377.976v1.612l6.377-.976Z" transform="translate(-51.416 -4.093)" fill="#292929"/>
      <path id="Path_78503" data-name="Path 78503" d="M64.877,15.35l-6.377.976v1.541l6.377-.976Z" transform="translate(-51.416 -3.401)" fill="#292929"/>
      <path id="Path_78504" data-name="Path 78504" d="M69.944,16.707A2.8,2.8,0,0,0,66.9,13.85a3.023,3.023,0,0,0-2.5,1.174,5.383,5.383,0,0,0-.891,3.252,5.383,5.383,0,0,0,.891,3.252A2.985,2.985,0,0,0,66.9,22.7a2.8,2.8,0,0,0,3.04-2.87v2.7H72.22v-8.5l-2.277.353m.113,3.9c0,1.584-.82,2.616-2.121,2.616-1.329,0-2.121-.976-2.121-2.616s.792-2.63,2.121-2.63a1.971,1.971,0,0,1,1.57.721,3.119,3.119,0,0,1,.551,1.909Z" transform="translate(-49.342 -4.023)" fill="#292929"/>
      <path id="Path_78505" data-name="Path 78505" d="M75.9,14.521a2.789,2.789,0,0,0-3.04,2.856V12.23l-2.277.353V23.2h2.277V20.516a2.792,2.792,0,0,0,3.04,2.87c2.135,0,3.422-1.64,3.422-4.426S78.046,14.521,75.9,14.521Zm-1.032,7.056c-1.3,0-2.121-1.032-2.121-2.616a3.08,3.08,0,0,1,.551-1.909,1.89,1.89,0,0,1,1.57-.721c1.329,0,2.121.976,2.121,2.63S76.194,21.576,74.864,21.576Z" transform="translate(-46.414 -4.693)" fill="#292929"/>
      <path id="Path_78506" data-name="Path 78506" d="M82.687,14.521a2.789,2.789,0,0,0-3.04,2.856V12.23l-2.277.353V23.2h2.277V20.516a2.792,2.792,0,0,0,3.04,2.87c2.135,0,3.422-1.64,3.422-4.426S84.822,14.521,82.687,14.521Zm-1.032,7.056c-1.287,0-2.121-1.032-2.121-2.616a3.08,3.08,0,0,1,.551-1.909,1.89,1.89,0,0,1,1.57-.721c1.329,0,2.121.976,2.121,2.63S82.984,21.576,81.654,21.576Z" transform="translate(-43.603 -4.693)" fill="#292929"/>
      <path id="Path_78507" data-name="Path 78507" d="M83.55,13.97h2.418l1.965,8.512H85.77Z" transform="translate(-41.045 -3.973)" fill="#292929"/>
    </g>
  </g>
</svg>
