<svg xmlns="http://www.w3.org/2000/svg" width="12" height="9" viewBox="0 0 12 9">
  <path id="Union_87" data-name="Union 87" d="M-17262-7295v-1a.5.5,0,0,0-.5-.5.5.5,0,0,0-.5.5v.949a2.5,2.5,0,0,1-2-2.45v-4a2.506,2.506,0,0,1,2-2.45v.951a.5.5,0,0,0,.5.5.5.5,0,0,0,.5-.5v-1h6.5a2.5,2.5,0,0,1,2.5,2.5v.5a.5.5,0,0,1-.5.5,1,1,0,0,0-1,1,1,1,0,0,0,1,1,.5.5,0,0,1,.5.5v.5a2.5,2.5,0,0,1-2.5,2.5Zm-1-3.5v.5a.5.5,0,0,0,.5.5.5.5,0,0,0,.5-.5v-.5a.5.5,0,0,0-.5-.5A.5.5,0,0,0-17263-7298.5Zm0-2.5v.5a.5.5,0,0,0,.5.5.5.5,0,0,0,.5-.5v-.5a.5.5,0,0,0-.5-.5A.5.5,0,0,0-17263-7301Z" transform="translate(17265 7304)" fill="#1279cb"/>
</svg>
