<svg xmlns="http://www.w3.org/2000/svg" width="17.143" height="15" viewBox="0 0 17.143 15">
  <path id="wallet-regular" d="M15.268,32a.8.8,0,0,1,0,1.607H2.946a1.339,1.339,0,0,0-1.339,1.339v9.107a1.339,1.339,0,0,0,1.339,1.339H14.2a1.339,1.339,0,0,0,1.339-1.339V38.161A1.339,1.339,0,0,0,14.2,36.821H4.018a.8.8,0,1,1,0-1.607H14.2a2.946,2.946,0,0,1,2.946,2.946v5.893A2.946,2.946,0,0,1,14.2,47H2.946A2.946,2.946,0,0,1,0,44.054V34.946A2.946,2.946,0,0,1,2.946,32Zm-3.482,9.107a1.071,1.071,0,1,1,1.071,1.071A1.07,1.07,0,0,1,11.786,41.107Z" transform="translate(0 -32)" fill="#88bd2f"/>
</svg>
