<svg xmlns="http://www.w3.org/2000/svg" width="140.576" height="140.576" viewBox="0 0 140.576 140.576">
  <g id="Group_41932" data-name="Group 41932" transform="translate(-789.164 -186.022)" opacity="0.095">
    <path id="Path_78115" data-name="Path 78115" d="M254.534,944.321a25.621,25.621,0,0,1,4.109-5.412q23.476-24.6,46.971-49.177c1.618-1.683,3.1-3.613,5.136-4.813,4.144-2.44,8.495-3.517,13.2-2a15.478,15.478,0,0,1,2.985,1.057,3.652,3.652,0,0,1,1.97,4.518c-.788,3.347-.584,6.752-.542,10.131a97.554,97.554,0,0,0,2.406,18.348c.02.1.02.2.045.463-.9-.9-1.7-1.714-2.513-2.511a18.543,18.543,0,0,0-5.469-4,9.4,9.4,0,0,0-7.389.008,2.4,2.4,0,0,0-.852.653q-14.643,15.312-29.276,30.636a88.411,88.411,0,0,0-7.373,8.121,19.108,19.108,0,0,0-3.288,7.858,3.9,3.9,0,0,0-.054.608c0,.051.056.1.095.172.4-.061.558-.427.794-.685.493-.54.949-1.121,1.46-1.64a2.336,2.336,0,0,1,3.626-.167,10.8,10.8,0,0,1,2.393,3.061,25.731,25.731,0,0,0,4.028,5.2q12.434,13.153,24.851,26.323c3.7,3.914,8.532,4.576,13.063,1.813a21.319,21.319,0,0,0,2.843-2.132c-1.01,8.454-1.8,16.713-1.34,25.039.169.546-.071,1.13.145,1.67l.049,1.189a5.431,5.431,0,0,1-.013,1.828c-1.032,1.414-2.64,1.639-4.1,1.952a13.882,13.882,0,0,1-12.522-3.221,97.138,97.138,0,0,1-7.86-8c-6.3-6.937-12.818-13.643-19.255-20.435-2.146-2.265-4.306-4.516-6.455-6.777-3.585-3.772-7.411-7.289-10.889-11.172-2.257-2.52-4.746-4.78-7.081-7.212a20.9,20.9,0,0,1-5.729-10.109,10.233,10.233,0,0,1-.121-1.2,25.825,25.825,0,0,1-.011-3.663,16.7,16.7,0,0,1,1.6-5.6C254.337,944.839,254.377,944.547,254.534,944.321Z" transform="translate(536.778 -696.198)"/>
    <path id="Path_78116" data-name="Path 78116" d="M393.217,931.363c1.588,2,3.513,3.678,5.229,5.555,1.73,1.892,3.594,3.668,4.769,6.019a19.887,19.887,0,0,1,1.744,5.55c.163.725-.074,1.475.135,2.2l0,.059c-.163.329-.006.7-.134,1.033a17.954,17.954,0,0,1-5.743,10.682c-2.742,2.648-5.43,5.353-8.142,8.032-.557.025-.77-.421-1.018-.782q-5.527-8.039-11.1-16.05a6.038,6.038,0,0,1-.7-2.982,14.914,14.914,0,0,0-4.245-8.536c-2.105-2.248-4.518-4.164-6.708-6.319-.294-.29-.663-.534-.753-.984a71.719,71.719,0,0,1-7.455-10.045,64.451,64.451,0,0,1-8.087-22.615,94.839,94.839,0,0,1-1.157-13.4,8.042,8.042,0,0,1,2.342,1.9c1.871,2.111,3.925,4.041,5.92,6.027Q368.832,907.37,379.6,917.97a5.57,5.57,0,0,0,2.133,1.72,138.988,138.988,0,0,0,11.033,11.07C392.963,930.932,393.2,931.069,393.217,931.363Z" transform="translate(524.606 -697.439)" fill="#909090"/>
    <path id="Union_7" data-name="Union 7" d="M42.607,105.6c-3.577-3.786-7.066-7.671-10.713-11.38-2.312-2.351-4.567-4.761-6.911-7.08-1.755-2.058-3.556-4.076-5.314-6.135-1.392-1.631-2.846-3.2-4.371-4.683-1.86-1.806-3.663-3.681-5.627-5.363-.036-.474-.416-.68-.677-.971a75.978,75.978,0,0,1-5.988-6.779c-3.013-4.285-3.965-9-1.918-14.1.8-1.977,2.358-3.363,3.7-4.9,1.609-1.839,3.329-3.577,5-5.358,3.154,3.248,6.72,6.045,9.362,9.847a15.742,15.742,0,0,1,2.7,8.249,3.491,3.491,0,0,0,.5,1.748q5.635,8.709,11.287,17.408a5.746,5.746,0,0,0,.674.731,2.07,2.07,0,0,0,.337,1.055,138.685,138.685,0,0,1,7.674,18.017,50.356,50.356,0,0,1,2.516,10.777c.036.339.306.627.124,1.075C44.159,107.039,43.334,106.372,42.607,105.6ZM27.25,25.7c-.593-.68-1.205-1.345-1.815-2.013a1.217,1.217,0,0,1-.471-.968c2.116-2.285,4.218-4.583,6.347-6.85Q38.6,8.1,45.917.362c.112-.117.232-.224.378-.362.313.507.189,1.078.347,1.577.112.344-.053.726.127,1.062q0,1.506,0,3.011c-.172.341-.01.729-.132,1.078-.77,5.536-1.37,11.11-3.161,16.422a31.026,31.026,0,0,1-7.028,12.01A98.413,98.413,0,0,1,27.25,25.7Z" transform="translate(881.38 200.922)" fill="#cbcbcb" stroke="rgba(0,0,0,0)" stroke-width="1"/>
    <path id="Path_78118" data-name="Path 78118" d="M366.036,982.736c.667-.1.954.5,1.319.82a123.527,123.527,0,0,1,11.809,11.707c.752.868,1.78,1.51,2.185,2.662-.446.025-.648.4-.913.664q-15.057,15.035-30.1,30.08c-.795.8-1.544,1.635-2.47,2.619l-.159-1.334c.2-.66-.032-1.35.137-2.012A83.26,83.26,0,0,1,359.8,990.675,46.887,46.887,0,0,1,366.036,982.736Z" transform="translate(523.564 -708.597)" fill="#909090"/>
    <path id="Path_78119" data-name="Path 78119" d="M374.249,896.292a9.575,9.575,0,0,1,2.993-6.717,8.145,8.145,0,0,1,6.676-1.972c5.125.557,9.417,5.79,10.045,10.387a6.357,6.357,0,0,0,.229.832c.129.4-.048.829.129,1.223a13.933,13.933,0,0,1-1.063,5.674,8.23,8.23,0,0,1-6.712,4.813,6.646,6.646,0,0,1-1.932-.012c-5.117-.778-7.992-4.06-9.688-8.663a10.764,10.764,0,0,1-.678-3.251A11.6,11.6,0,0,1,374.249,896.292Z" transform="translate(520.005 -697.203)" fill="#909090"/>
    <path id="Path_78121" data-name="Path 78121" d="M252.539,962.649l.011,3.491A8.225,8.225,0,0,1,252.539,962.649Z" transform="translate(536.807 -708.105)"/>
    <path id="Path_78122" data-name="Path 78122" d="M374.221,898.333v2.313A3.8,3.8,0,0,1,374.221,898.333Z" transform="translate(518.382 -699.246)"/>
    <path id="Path_78123" data-name="Path 78123" d="M417.945,964.609a11.315,11.315,0,0,1-.134-2.2A5.817,5.817,0,0,1,417.945,964.609Z" transform="translate(511.755 -708.102)"/>
    <path id="Path_78124" data-name="Path 78124" d="M387.046,915.878l1.932.013A2.364,2.364,0,0,1,387.046,915.878Z" transform="translate(517.573 -701.214)"/>
    <path id="Path_78128" data-name="Path 78128" d="M398.984,902.676a3.059,3.059,0,0,1-.129-1.223C399.133,901.836,398.963,902.266,398.984,902.676Z" transform="translate(515.341 -699.836)"/>
    <path id="Path_78129" data-name="Path 78129" d="M416.03,903.417a1.762,1.762,0,0,1-.128-1C416.15,902.725,416.011,903.082,416.03,903.417Z" transform="translate(512.119 -700.018)"/>
    <path id="Path_78130" data-name="Path 78130" d="M415.893,908.147a1.693,1.693,0,0,1,.131-1.01C416.008,907.477,416.152,907.838,415.893,908.147Z" transform="translate(512.121 -700.91)"/>
    <path id="Path_78131" data-name="Path 78131" d="M417.807,966.228a1.851,1.851,0,0,1,.134-1.033C417.928,965.544,418.075,965.912,417.807,966.228Z" transform="translate(511.758 -708.547)"/>
    <path id="Path_78132" data-name="Path 78132" d="M254.921,955.2a.936.936,0,0,1-.364.7A.652.652,0,0,1,254.921,955.2Z" transform="translate(536.391 -707.066)"/>
  </g>
</svg>
