<svg xmlns="http://www.w3.org/2000/svg" width="20" height="20" viewBox="0 0 20 20">
  <path id="file-certificate-regular_1_" data-name="file-certificate-regular (1)" d="M9.695,13.215a1.162,1.162,0,0,0,.3-1.123,1.841,1.841,0,0,1,0-1.5,1.168,1.168,0,0,0-.3-1.128c-.583-.593-.56-.5-.739-1.3a1.212,1.212,0,0,0-.806-.82,1.8,1.8,0,0,1-1.283-.75,1.157,1.157,0,0,0-1.1-.3,1.772,1.772,0,0,1-1.477,0,1.14,1.14,0,0,0-1.106.3,1.812,1.812,0,0,1-1.281.75,1.159,1.159,0,0,0-.808.82,1.805,1.805,0,0,1-.738,1.3,1.179,1.179,0,0,0-.3,1.128,1.86,1.86,0,0,1,0,1.5,1.173,1.173,0,0,0,.3,1.123,1.813,1.813,0,0,1,.738,1.3,1.15,1.15,0,0,0,.809.825,2.369,2.369,0,0,1,.621.2V20l2.5-1.25L7.527,20V15.531a2.287,2.287,0,0,1,.621-.2,1.212,1.212,0,0,0,.807-.825C9.135,13.7,9.112,13.8,9.695,13.215Zm-4.672.535a2.5,2.5,0,1,1,2.5-2.5A2.5,2.5,0,0,1,5.023,13.75Zm14.293-10.1L16.4.732A2.518,2.518,0,0,0,14.625,0H7.492a2.5,2.5,0,0,0-2.5,2.5V5.193a2.539,2.539,0,0,1,1.878-.029L6.9,2.5a.626.626,0,0,1,.626-.625h6.26V5a1.251,1.251,0,0,0,1.252,1.25h3.095V17.5a.626.626,0,0,1-.626.625H8.779L8.744,20h8.764a2.509,2.509,0,0,0,2.5-2.5V5.414A2.329,2.329,0,0,0,19.316,3.648Z" transform="translate(-0.015 0)" fill="#0079cb"/>
</svg>
