<svg xmlns="http://www.w3.org/2000/svg" width="28" height="16" viewBox="0 0 28 16">
  <path id="language-light" d="M10.452,75.088a.662.662,0,0,1-.394.867.718.718,0,0,1-.91-.375l-.381-.95H5.233l-.381.95a.72.72,0,0,1-.912.375.657.657,0,0,1-.39-.867l2.8-6.667A.654.654,0,0,1,7,68a.654.654,0,0,1,.652.421ZM5.792,73.333H8.207L7,70.462Zm15.907-4h2.8a.667.667,0,1,1,0,1.333h-.21l-.184.483a7.987,7.987,0,0,1-1.9,2.875,2.814,2.814,0,0,0,.429.262l.827.475a.644.644,0,0,1,.241.913.715.715,0,0,1-.958.229l-.827-.471a5.23,5.23,0,0,1-.809-.554,5.865,5.865,0,0,1-1.138.692l-.752.358a.715.715,0,0,1-.941-.3.651.651,0,0,1,.311-.9l.757-.358a7.469,7.469,0,0,0,.678-.371l-.914-.871a.64.64,0,0,1,0-.942.719.719,0,0,1,.989,0l.989.942.035.033a6.629,6.629,0,0,0,1.671-2.479l.013-.062H17.5a.663.663,0,0,1-.7-.667.712.712,0,0,1,.7-.667h2.8v-.667a.7.7,0,0,1,1.4,0Zm6.3,8A2.738,2.738,0,0,1,25.2,80H2.8A2.737,2.737,0,0,1,0,77.333V66.667A2.736,2.736,0,0,1,2.8,64H25.2A2.737,2.737,0,0,1,28,66.667Zm-14.7-12H2.8a1.367,1.367,0,0,0-1.4,1.333V77.333a1.367,1.367,0,0,0,1.4,1.333H13.3Zm1.4,0V78.667H25.2a1.366,1.366,0,0,0,1.4-1.333V66.667a1.366,1.366,0,0,0-1.4-1.333Z" transform="translate(0 -64)" fill="#0079cb"/>
</svg>
