<svg xmlns="http://www.w3.org/2000/svg" width="24.064" height="23.999" viewBox="0 0 24.064 23.999">
  <g id="time-check" transform="translate(0.001 -0.001)">
    <path id="Path_78561" data-name="Path 78561" d="M9.856,20.743A9,9,0,1,1,21,12a1.5,1.5,0,0,0,3,0A12,12,0,1,0,9.144,23.657,1.464,1.464,0,0,0,9.5,23.7a1.5,1.5,0,0,0,.355-2.957Z" fill="#0079cb"/>
    <path id="Path_78562" data-name="Path 78562" d="M23.621,15.939a1.5,1.5,0,0,0-2.121,0l-4.785,4.782-2.133-2.26a1.5,1.5,0,1,0-2.163,2.078L15,23.26a2.362,2.362,0,0,0,1.674.74h.037a2.368,2.368,0,0,0,1.661-.688l5.254-5.252a1.5,1.5,0,0,0,0-2.121Z" fill="#0079cb"/>
    <path id="Path_78563" data-name="Path 78563" d="M10.5,7.5v3.555l-2.4,1.5A1.5,1.5,0,0,0,9.693,15.1l2.869-1.8a2,2,0,0,0,.938-1.7V7.5a1.5,1.5,0,0,0-3,0Z" fill="#0079cb"/>
  </g>
</svg>
